<?xml version="1.0" encoding="UTF-8" standalone="no"?><!DOCTYPE svg PUBLIC "-//W3C//DTD SVG 1.1//EN" "http://www.w3.org/Graphics/SVG/1.1/DTD/svg11.dtd"><svg width="100%" height="100%" viewBox="0 0 2000 2000" version="1.1" xmlns="http://www.w3.org/2000/svg" xmlns:xlink="http://www.w3.org/1999/xlink" xml:space="preserve" style="fill-rule:evenodd;clip-rule:evenodd;stroke-linecap:round;stroke-linejoin:round;stroke-miterlimit:1.5;"><g><circle cx="868.255" cy="807.191" r="111.475" style="fill:#fff;fill-opacity:0;stroke:#000;stroke-width:4.01px;"/><path id="list" d="M915.129,869.722l-93.155,0c-2.066,0 -5.444,-3.994 -5.444,-6.231l0,-113.571c0,-2.236 3.378,-5.26 5.444,-5.26l93.155,0c2.066,0 4.851,3.23 4.851,5.467l0,113.571c0,2.236 -2.785,6.024 -4.851,6.024Zm-69.167,-27.97l66.736,0l0,-6.429l-66.736,0l0,6.429Zm-18.278,19.718l11.781,0l0,-6.471l-11.781,0l0,6.471Zm-0.031,-19.568l11.936,0l0,-6.641l-11.936,0l0,6.641Zm-0.146,-19.943l11.972,-0.132l0,-6.577l-11.972,0.131l0,6.578Zm0.041,-26.322l0,6.534l11.625,0l0,-6.534l-11.625,0Zm11.625,-13.325l0,-6.533l-11.625,0l0,6.533l11.625,0Zm0.506,-26.587l-12.16,0l0,6.698l12.16,0l0,-6.698Zm6.128,66.27l66.554,0l0,-6.543l-66.554,0l0,6.543Zm66.727,-19.91l0,-6.637l-66.632,0l0,6.637l66.632,0Zm-66.632,-19.859l66.632,0l0,-6.637l-66.632,0l0,6.637Zm66.872,-26.396l-66.8,0l0,6.608l66.8,0l0,-6.608Zm-66.732,99.348l-0.001,6.051l66.524,0l0.211,-6.051l-66.734,0Z" style="fill:#fff;fill-opacity:0;stroke:#000;stroke-width:2.83px;stroke-linecap:butt;stroke-miterlimit:1.41421;"/></g><text x="1055.5px" y="835.242px" style="font-family:'ArialMT', 'Arial', sans-serif;font-size:111.227px;">Register</text><text x="1055.5px" y="1146.61px" style="font-family:'ArialMT', 'Arial', sans-serif;font-size:111.227px;">Custodian</text><g><circle cx="868.255" cy="1118.56" r="111.475" style="fill:#fff;fill-opacity:0;stroke:#000;stroke-width:4.01px;"/><g><g><circle cx="868.255" cy="1074.57" r="35.089" style="fill:none;stroke:#000;stroke-width:3.24px;stroke-miterlimit:10;"/><path d="M917.814,1197.64l0,-47.811c0,-18.483 -14.761,-33.567 -32.791,-33.567l-33.536,0c-18.03,0 -32.79,15.116 -32.79,33.567l0,47.811l99.117,0Z" style="fill:none;stroke:#000;stroke-width:3.24px;stroke-miterlimit:10;"/></g></g></g><g><circle cx="868.255" cy="495.82" r="111.475" style="fill:#fff;fill-opacity:0;stroke:#000;stroke-width:4.01px;"/><g><path d="M839.733,441.889c-0.84,0 -6.349,14.835 -6.349,14.835l-6.724,2.722c0,0 -14.912,-6.332 -15.489,-5.768l-8.546,8.37c-0.595,0.581 6.215,14.882 6.215,14.882l-2.778,6.599c0,0 -15.115,5.819 -15.115,6.603l0,11.854c0,0.827 15.154,6.224 15.154,6.224l2.769,6.59c0,0 -6.469,14.585 -5.888,15.15l8.55,8.382c0.582,0.564 15.197,-6.104 15.197,-6.104l6.745,2.731c0,0 5.945,14.792 6.772,14.792l12.086,0c0.831,0 6.354,-14.835 6.354,-14.835l6.745,-2.727c0,0 14.878,6.332 15.455,5.781l8.559,-8.369c0.594,-0.59 -6.216,-14.882 -6.216,-14.882l2.783,-6.599c0,0 15.11,-5.837 15.11,-6.629l0,-11.841c0,-0.819 -15.149,-6.199 -15.149,-6.199l-2.778,-6.607c0,0 6.465,-14.603 5.897,-15.167l-8.564,-8.36c-0.594,-0.578 -15.192,6.09 -15.192,6.09l-6.754,-2.722c0,0 -5.935,-14.796 -6.754,-14.796l-12.095,0Zm-11.363,53.929c0,-9.528 7.934,-17.269 17.665,-17.269c9.73,0 17.66,7.741 17.66,17.269c0,9.528 -7.93,17.281 -17.66,17.281c-9.731,0 -17.665,-7.753 -17.665,-17.281Z" style="fill:#fff;fill-rule:nonzero;stroke:#000;stroke-width:3px;stroke-linecap:butt;stroke-miterlimit:1.41421;"/><path d="M923.389,502.355l-3.408,-0.223c0,0 -4.843,-5.867 -5.193,-5.748l-5.406,1.862c-0.365,0.129 -0.648,7.775 -0.648,7.775l-2.587,2.304c0,0 -7.595,-0.629 -7.776,-0.277l-2.579,5.162c-0.175,0.363 4.978,5.881 4.978,5.881l-0.274,3.457c0,0 -5.877,4.983 -5.769,5.347l1.746,5.447c0.116,0.384 7.678,0.515 7.678,0.515l2.218,2.595c0,0 -0.751,7.703 -0.41,7.873l5.055,2.529c0.344,0.175 5.878,-5.146 5.878,-5.146l3.408,0.24c0,0 4.848,5.869 5.221,5.741l5.39,-1.869c0.378,-0.127 0.642,-7.768 0.642,-7.768l2.601,-2.305c0,0 7.588,0.636 7.76,0.286l2.584,-5.161c0.177,-0.353 -4.964,-5.882 -4.964,-5.882l0.275,-3.448c0,0 5.883,-5.008 5.752,-5.365l-1.74,-5.453c-0.115,-0.371 -7.67,-0.51 -7.67,-0.51l-2.217,-2.602c0,0 0.748,-7.688 0.403,-7.863l-5.046,-2.526c-0.005,-0.001 -0.009,-0.002 -0.013,-0.003c-0.433,-0.098 -5.889,5.135 -5.889,5.135Zm-7.019,27.219c-4.067,-2.036 -5.67,-7.079 -3.594,-11.224c2.082,-4.154 7.082,-5.877 11.149,-3.845c4.062,2.035 5.666,7.073 3.583,11.231c-1.765,3.536 -5.664,5.313 -9.303,4.491c-0.623,-0.136 -1.24,-0.355 -1.835,-0.653Z" style="fill:#fff;fill-rule:nonzero;stroke:#000;stroke-width:3px;stroke-linecap:butt;stroke-miterlimit:1.41421;"/></g></g><text x="1055.5px" y="523.871px" style="font-family:'ArialMT', 'Arial', sans-serif;font-size:111.227px;">Genesis</text><text x="1055.5px" y="1457.98px" style="font-family:'ArialMT', 'Arial', sans-serif;font-size:111.227px;">Service</text><g><circle cx="868.255" cy="1429.93" r="111.475" style="fill:#fff;fill-opacity:0;stroke:#000;stroke-width:4.01px;"/><g><path d="M795.383,1402.13c-2.595,0 -4.69,2.385 -4.69,5.321l0,62.401c0,2.932 2.095,5.312 4.69,5.312l45.912,0c2.589,0 4.692,-2.38 4.692,-5.312l0,-62.401c0,-2.936 -2.103,-5.321 -4.692,-5.321l-45.912,0Zm0.06,6.4l45.792,0l0,55.557l-45.792,0l0,-55.557Zm16.609,60.658l12.576,0l0,1.554l-12.576,0l0,-1.554Z" style="fill:url(#_Radial1);fill-rule:nonzero;"/><path d="M860.767,1381.07c-3.358,0 -6.085,2.738 -6.085,6.118l0,56.105c0,3.381 2.727,6.119 6.085,6.119l30.293,0c0,0 1.321,12.247 -9.182,12.247l0,6.13l36.746,0l0,-6.13c-10.911,0 -9.19,-12.247 -9.19,-12.247l30.31,0c3.354,0 6.073,-2.738 6.073,-6.119l0,-56.105c0,-3.38 -2.719,-6.118 -6.073,-6.118l-78.977,0Zm0.431,6.505l78.111,0l0,47.312l-78.111,0l0,-47.312Zm34.207,54.349c0,-2.901 2.351,-5.255 5.253,-5.255c2.904,0 5.252,2.354 5.252,5.255c0,2.899 -2.348,5.253 -5.252,5.253c-2.902,0 -5.253,-2.354 -5.253,-5.253Z" style="fill:url(#_Radial2);fill-rule:nonzero;"/><g><rect x="839.807" y="1430.4" width="24.285" height="45.875" style="fill:#fff;"/><path d="M841.316,1429.08c-1.996,0 -3.613,1.623 -3.613,3.623l0,42.483c0,1.997 1.617,3.618 3.613,3.618l20.926,0c1.998,0 3.618,-1.621 3.618,-3.618l0,-42.483c0,-2 -1.62,-3.623 -3.618,-3.623l-20.926,0Zm17.613,3.193c0,-0.512 0.415,-0.926 0.928,-0.926c0.51,0 0.926,0.414 0.926,0.926c0,0.512 -0.416,0.926 -0.926,0.926c-0.513,0 -0.928,-0.414 -0.928,-0.926Zm-11.999,-0.573l9.702,0l0,1.056l-9.702,0l0,-1.056Zm-6.516,3.491l22.733,0l0,32.121l-22.733,0l0,-32.121Zm9.057,37.728c0,-1.276 1.032,-2.31 2.309,-2.31c1.272,0 2.309,1.034 2.309,2.31c0,1.275 -1.037,2.31 -2.309,2.31c-1.277,0 -2.309,-1.035 -2.309,-2.31Z" style="fill:url(#_Radial3);fill-rule:nonzero;"/></g><g><path d="M843.655,1441.97l15.696,0" style="fill:none;stroke:#000;stroke-width:0.66px;"/><path d="M843.655,1445.9l15.696,0" style="fill:none;stroke:#000;stroke-width:0.66px;"/><path d="M843.655,1449.84l15.696,0" style="fill:none;stroke:#000;stroke-width:0.66px;"/><path d="M843.655,1453.77l15.696,0" style="fill:none;stroke:#000;stroke-width:0.66px;"/><path d="M843.655,1457.7l15.696,0" style="fill:none;stroke:#000;stroke-width:0.66px;"/><path d="M843.655,1461.63l15.696,0" style="fill:none;stroke:#000;stroke-width:0.66px;"/></g><g><path d="M876.003,1397.35l47.941,0" style="fill:none;stroke:#000;stroke-width:0.56px;"/><path d="M876.003,1401.28l47.941,0" style="fill:none;stroke:#000;stroke-width:0.56px;"/><path d="M876.003,1405.21l47.941,0" style="fill:none;stroke:#000;stroke-width:0.56px;"/><path d="M876.003,1409.14l47.941,0" style="fill:none;stroke:#000;stroke-width:0.56px;"/><path d="M876.003,1413.08l47.941,0" style="fill:none;stroke:#000;stroke-width:0.56px;"/><path d="M876.003,1416.85l47.941,0" style="fill:none;stroke:#000;stroke-width:0.56px;"/><path d="M876.003,1420.79l47.941,0" style="fill:none;stroke:#000;stroke-width:0.56px;"/><path d="M876.003,1424.72l47.941,0" style="fill:none;stroke:#000;stroke-width:0.56px;"/></g><g><path d="M802.8,1416.72l31.078,0" style="fill:none;stroke:#000;stroke-width:0.78px;"/><path d="M802.8,1424.5l31.078,0" style="fill:none;stroke:#000;stroke-width:0.78px;"/><path d="M802.8,1432.29l31.078,0" style="fill:none;stroke:#000;stroke-width:0.78px;"/><path d="M802.8,1440.08l31.078,0" style="fill:none;stroke:#000;stroke-width:0.78px;"/><path d="M802.8,1447.86l31.078,0" style="fill:none;stroke:#000;stroke-width:0.78px;"/><path d="M802.8,1455.65l31.078,0" style="fill:none;stroke:#000;stroke-width:0.78px;"/></g></g></g><g><circle cx="868.255" cy="1429.93" r="111.475" style="fill:#fff;fill-opacity:0;stroke:#000;stroke-width:4.01px;"/><g><path d="M795.383,1402.13c-2.595,0 -4.69,2.385 -4.69,5.321l0,62.401c0,2.932 2.095,5.312 4.69,5.312l45.912,0c2.589,0 4.692,-2.38 4.692,-5.312l0,-62.401c0,-2.936 -2.103,-5.321 -4.692,-5.321l-45.912,0Zm0.06,6.4l45.792,0l0,55.557l-45.792,0l0,-55.557Zm16.609,60.658l12.576,0l0,1.554l-12.576,0l0,-1.554Z" style="fill:url(#_Radial4);fill-rule:nonzero;"/><path d="M860.767,1381.07c-3.358,0 -6.085,2.738 -6.085,6.118l0,56.105c0,3.381 2.727,6.119 6.085,6.119l30.293,0c0,0 1.321,12.247 -9.182,12.247l0,6.13l36.746,0l0,-6.13c-10.911,0 -9.19,-12.247 -9.19,-12.247l30.31,0c3.354,0 6.073,-2.738 6.073,-6.119l0,-56.105c0,-3.38 -2.719,-6.118 -6.073,-6.118l-78.977,0Zm0.431,6.505l78.111,0l0,47.312l-78.111,0l0,-47.312Zm34.207,54.349c0,-2.901 2.351,-5.255 5.253,-5.255c2.904,0 5.252,2.354 5.252,5.255c0,2.899 -2.348,5.253 -5.252,5.253c-2.902,0 -5.253,-2.354 -5.253,-5.253Z" style="fill:url(#_Radial5);fill-rule:nonzero;"/><g><rect x="839.807" y="1430.4" width="24.285" height="45.875" style="fill:#fff;"/><path d="M841.316,1429.08c-1.996,0 -3.613,1.623 -3.613,3.623l0,42.483c0,1.997 1.617,3.618 3.613,3.618l20.926,0c1.998,0 3.618,-1.621 3.618,-3.618l0,-42.483c0,-2 -1.62,-3.623 -3.618,-3.623l-20.926,0Zm17.613,3.193c0,-0.512 0.415,-0.926 0.928,-0.926c0.51,0 0.926,0.414 0.926,0.926c0,0.512 -0.416,0.926 -0.926,0.926c-0.513,0 -0.928,-0.414 -0.928,-0.926Zm-11.999,-0.573l9.702,0l0,1.056l-9.702,0l0,-1.056Zm-6.516,3.491l22.733,0l0,32.121l-22.733,0l0,-32.121Zm9.057,37.728c0,-1.276 1.032,-2.31 2.309,-2.31c1.272,0 2.309,1.034 2.309,2.31c0,1.275 -1.037,2.31 -2.309,2.31c-1.277,0 -2.309,-1.035 -2.309,-2.31Z" style="fill:url(#_Radial6);fill-rule:nonzero;"/></g><g><path d="M843.655,1441.97l15.696,0" style="fill:none;stroke:#000;stroke-width:0.66px;"/><path d="M843.655,1445.9l15.696,0" style="fill:none;stroke:#000;stroke-width:0.66px;"/><path d="M843.655,1449.84l15.696,0" style="fill:none;stroke:#000;stroke-width:0.66px;"/><path d="M843.655,1453.77l15.696,0" style="fill:none;stroke:#000;stroke-width:0.66px;"/><path d="M843.655,1457.7l15.696,0" style="fill:none;stroke:#000;stroke-width:0.66px;"/><path d="M843.655,1461.63l15.696,0" style="fill:none;stroke:#000;stroke-width:0.66px;"/></g><g><path d="M876.003,1397.35l47.941,0" style="fill:none;stroke:#000;stroke-width:0.56px;"/><path d="M876.003,1401.28l47.941,0" style="fill:none;stroke:#000;stroke-width:0.56px;"/><path d="M876.003,1405.21l47.941,0" style="fill:none;stroke:#000;stroke-width:0.56px;"/><path d="M876.003,1409.14l47.941,0" style="fill:none;stroke:#000;stroke-width:0.56px;"/><path d="M876.003,1413.08l47.941,0" style="fill:none;stroke:#000;stroke-width:0.56px;"/><path d="M876.003,1416.85l47.941,0" style="fill:none;stroke:#000;stroke-width:0.56px;"/><path d="M876.003,1420.79l47.941,0" style="fill:none;stroke:#000;stroke-width:0.56px;"/><path d="M876.003,1424.72l47.941,0" style="fill:none;stroke:#000;stroke-width:0.56px;"/></g><g><path d="M802.8,1416.72l31.078,0" style="fill:none;stroke:#000;stroke-width:0.78px;"/><path d="M802.8,1424.5l31.078,0" style="fill:none;stroke:#000;stroke-width:0.78px;"/><path d="M802.8,1432.29l31.078,0" style="fill:none;stroke:#000;stroke-width:0.78px;"/><path d="M802.8,1440.08l31.078,0" style="fill:none;stroke:#000;stroke-width:0.78px;"/><path d="M802.8,1447.86l31.078,0" style="fill:none;stroke:#000;stroke-width:0.78px;"/><path d="M802.8,1455.65l31.078,0" style="fill:none;stroke:#000;stroke-width:0.78px;"/></g></g></g><text x="1072.27px" y="1772px" style="font-family:'ArialMT', 'Arial', sans-serif;font-size:111.227px;">Aggregator</text><g><circle cx="868.255" cy="1743.95" r="111.475" style="fill:#fff;fill-opacity:0;stroke:#000;stroke-width:4.01px;"/><path d="M900.894,1751.7c-3.037,0.082 -6.073,0.263 -9.091,0.629c-2.479,0.3 -4.949,0.72 -7.367,1.35c-0.517,0.135 -1.031,0.279 -1.542,0.435c-2.561,0.78 -5.069,1.844 -7.253,3.411c-0.414,0.296 -0.815,0.61 -1.201,0.941c-1.076,0.921 -2.029,1.974 -2.875,3.108c-1.089,1.461 -2.004,3.043 -2.877,4.64c-0.177,0.326 -0.352,0.653 -0.527,0.981c-0.71,1.339 -1.406,2.686 -2.13,4.018c-0.677,1.245 -1.38,2.477 -2.131,3.679c-0.898,1.436 -1.865,2.828 -2.919,4.154c-1.117,1.404 -2.33,2.732 -3.636,3.963c-0.976,0.92 -2.003,1.785 -3.073,2.593c-0.752,0.568 -1.526,1.108 -2.317,1.62c-4.426,2.859 -9.382,4.809 -14.454,6.182c-0.816,0.22 -1.636,0.427 -2.459,0.619c-0.969,0.227 -1.942,0.436 -2.919,0.628c-1.38,0.272 -2.766,0.511 -4.156,0.722c-1.747,0.265 -3.5,0.486 -5.257,0.672c-2.48,0.261 -4.967,0.452 -7.457,0.587c-3.423,0.187 -6.851,0.266 -10.279,0.278c-0.673,0.001 -1.345,0 -2.017,-0.004c-0.512,-0.003 -1.024,-0.008 -1.536,-0.014l0.168,-15.173c5.437,0.06 10.879,-0.041 16.301,-0.468c2.294,-0.182 4.585,-0.422 6.864,-0.744c2.03,-0.287 4.051,-0.638 6.053,-1.082c1.453,-0.321 2.896,-0.692 4.32,-1.126c1.4,-0.427 2.782,-0.916 4.129,-1.487c2.444,-1.037 4.783,-2.355 6.816,-4.074c0.676,-0.571 1.316,-1.185 1.918,-1.836c0.609,-0.66 1.178,-1.357 1.71,-2.081c1.129,-1.536 2.088,-3.186 3,-4.858c0.179,-0.329 0.356,-0.66 0.533,-0.991c1.279,-2.415 2.519,-4.853 3.95,-7.183c0.725,-1.18 1.497,-2.331 2.331,-3.437c0.903,-1.199 1.878,-2.344 2.927,-3.418c1.134,-1.161 2.353,-2.237 3.646,-3.217c0.775,-0.587 1.576,-1.141 2.399,-1.659l0.174,-0.109l-0.174,-0.109c-0.823,-0.519 -1.624,-1.072 -2.399,-1.659c-1.293,-0.98 -2.512,-2.057 -3.646,-3.217c-1.049,-1.074 -2.024,-2.219 -2.927,-3.418c-0.834,-1.106 -1.606,-2.258 -2.331,-3.437c-1.431,-2.33 -2.671,-4.768 -3.95,-7.183c-0.177,-0.331 -0.354,-0.662 -0.533,-0.991c-0.912,-1.672 -1.871,-3.322 -3,-4.858c-0.532,-0.724 -1.101,-1.422 -1.71,-2.082c-0.602,-0.65 -1.242,-1.264 -1.918,-1.836c-2.033,-1.718 -4.372,-3.036 -6.816,-4.073c-1.347,-0.572 -2.729,-1.061 -4.129,-1.487c-1.424,-0.435 -2.867,-0.805 -4.32,-1.127c-2.002,-0.443 -4.023,-0.795 -6.053,-1.081c-2.279,-0.323 -4.57,-0.563 -6.864,-0.744c-5.422,-0.428 -10.864,-0.528 -16.301,-0.468l-0.168,-15.174c0.512,-0.005 1.024,-0.01 1.536,-0.013c0.672,-0.004 1.344,-0.005 2.017,-0.004c3.428,0.012 6.856,0.091 10.279,0.278c2.49,0.135 4.977,0.325 7.457,0.587c1.757,0.186 3.51,0.407 5.257,0.672c1.39,0.211 2.776,0.45 4.156,0.722c0.977,0.192 1.95,0.4 2.919,0.627c0.823,0.193 1.643,0.399 2.459,0.62c5.072,1.373 10.028,3.322 14.454,6.182c0.791,0.512 1.565,1.051 2.317,1.619c1.07,0.808 2.097,1.674 3.073,2.594c1.306,1.231 2.519,2.558 3.636,3.963c1.054,1.325 2.021,2.718 2.919,4.154c0.751,1.202 1.454,2.434 2.131,3.679c0.724,1.332 1.42,2.679 2.13,4.018c0.175,0.327 0.35,0.654 0.527,0.981c0.873,1.597 1.788,3.178 2.877,4.64c0.846,1.134 1.799,2.187 2.875,3.108c0.386,0.331 0.787,0.645 1.201,0.941c2.184,1.566 4.692,2.631 7.253,3.411c0.511,0.156 1.025,0.3 1.542,0.435c2.418,0.629 4.888,1.05 7.367,1.35c3.018,0.365 6.054,0.547 9.091,0.629c0.002,-0.41 0.004,-0.811 0.005,-1.204l0,-2.789l0,-17.095l0,-0.031l0,-0.125c0,-0.772 0.282,-1.44 0.845,-2.003c0.564,-0.565 1.232,-0.846 2.002,-0.846c0.833,0 1.516,0.266 2.047,0.801l28.493,28.491c0.536,0.535 0.803,1.217 0.803,2.048c0,0.027 0,0.053 -0.001,0.079c0.001,0.027 0.001,0.053 0.001,0.08c0,0.831 -0.267,1.513 -0.803,2.048l-28.493,28.491c-0.531,0.535 -1.214,0.801 -2.047,0.801c-0.77,0 -1.438,-0.282 -2.002,-0.846c-0.563,-0.563 -0.845,-1.231 -0.845,-2.003l0,-0.125l0,-0.031l0,-17.095l0,-2.789l-0.005,-0.355Z" style="fill:#fff;stroke:#000;stroke-width:5.26px;stroke-linecap:butt;stroke-miterlimit:1.41421;"/></g><path d="M1208.34,120.286l0,-19.621l0,-0.031l0,-0.126c0,-0.771 0.282,-1.44 0.845,-2.003c0.564,-0.564 1.232,-0.846 2.003,-0.846c0.832,0 1.515,0.267 2.046,0.801l28.494,28.492c0.536,0.534 0.802,1.216 0.802,2.048c0,0.026 0,0.053 -0.001,0.079c0.001,0.026 0.001,0.053 0.001,0.079c0,0.832 -0.266,1.513 -0.802,2.048l-28.494,28.492c-0.531,0.534 -1.214,0.801 -2.046,0.801c-0.771,0 -1.439,-0.282 -2.003,-0.846c-0.563,-0.563 -0.845,-1.232 -0.845,-2.003l0,-0.126l0,-0.031l0,-19.621l-394.756,0c-0.382,-0.025 -0.767,-0.025 -1.148,-0.075c-1.142,-0.151 -2.251,-0.527 -3.248,-1.103c-0.666,-0.384 -1.278,-0.854 -1.822,-1.397c-1.917,-1.918 -2.854,-4.678 -2.5,-7.366c0.1,-0.762 0.3,-1.507 0.594,-2.217c0.441,-1.064 1.092,-2.038 1.906,-2.853c1.088,-1.087 2.457,-1.878 3.942,-2.276c0.991,-0.265 1.259,-0.233 2.276,-0.299l394.756,0Z"/><defs><radialGradient id="_Radial1" cx="0" cy="0" r="1" gradientUnits="userSpaceOnUse" gradientTransform="matrix(30.0243,0,0,34.0209,818.339,1438.65)"><stop offset="0%" style="stop-color:#130c0e;stop-opacity:1"/><stop offset="100%" style="stop-color:#130c0e;stop-opacity:1"/></radialGradient><radialGradient id="_Radial2" cx="0" cy="0" r="1" gradientUnits="userSpaceOnUse" gradientTransform="matrix(44.4769,0,0,44.4769,900.25,1424.43)"><stop offset="0%" style="stop-color:#130c0e;stop-opacity:1"/><stop offset="100%" style="stop-color:#130c0e;stop-opacity:1"/></radialGradient><radialGradient id="_Radial3" cx="0" cy="0" r="1" gradientUnits="userSpaceOnUse" gradientTransform="matrix(20.2032,0,0,20.2032,851.781,1453.94)"><stop offset="0%" style="stop-color:#130c0e;stop-opacity:1"/><stop offset="100%" style="stop-color:#130c0e;stop-opacity:1"/></radialGradient><radialGradient id="_Radial4" cx="0" cy="0" r="1" gradientUnits="userSpaceOnUse" gradientTransform="matrix(30.0243,0,0,34.0209,818.339,1438.65)"><stop offset="0%" style="stop-color:#130c0e;stop-opacity:1"/><stop offset="100%" style="stop-color:#130c0e;stop-opacity:1"/></radialGradient><radialGradient id="_Radial5" cx="0" cy="0" r="1" gradientUnits="userSpaceOnUse" gradientTransform="matrix(44.4769,0,0,44.4769,900.25,1424.43)"><stop offset="0%" style="stop-color:#130c0e;stop-opacity:1"/><stop offset="100%" style="stop-color:#130c0e;stop-opacity:1"/></radialGradient><radialGradient id="_Radial6" cx="0" cy="0" r="1" gradientUnits="userSpaceOnUse" gradientTransform="matrix(20.2032,0,0,20.2032,851.781,1453.94)"><stop offset="0%" style="stop-color:#130c0e;stop-opacity:1"/><stop offset="100%" style="stop-color:#130c0e;stop-opacity:1"/></radialGradient></defs></svg>