<?xml version="1.0" encoding="UTF-8" standalone="no"?><!DOCTYPE svg PUBLIC "-//W3C//DTD SVG 1.1//EN" "http://www.w3.org/Graphics/SVG/1.1/DTD/svg11.dtd"><svg width="100%" height="100%" viewBox="0 0 1189 311" version="1.1" xmlns="http://www.w3.org/2000/svg" xmlns:xlink="http://www.w3.org/1999/xlink" xml:space="preserve" style="fill-rule:evenodd;clip-rule:evenodd;stroke-linecap:round;stroke-linejoin:round;stroke-miterlimit:1.5;"><g><g><circle cx="383.686" cy="69.686" r="40.686" style="fill:#fff;fill-opacity:0;stroke:#000;stroke-width:1.46px;"/><path id="list" d="M400.793,92.508l-33.999,0c-0.754,0 -1.986,-1.458 -1.986,-2.274l0,-41.451c0,-0.816 1.232,-1.92 1.986,-1.92l33.999,0c0.754,0 1.771,1.18 1.771,1.996l0,41.45c0,0.817 -1.017,2.199 -1.771,2.199Zm-25.244,-10.208l24.357,0l0,-2.347l-24.357,0l0,2.347Zm-6.671,7.196l4.3,0l0,-2.362l-4.3,0l0,2.362Zm-0.011,-7.142l4.356,0l0,-2.423l-4.356,0l0,2.423Zm-0.053,-7.278l4.369,-0.048l0,-2.401l-4.369,0.048l0,2.401Zm0.015,-9.607l0,2.384l4.242,0l0,-2.384l-4.242,0Zm4.242,-4.864l0,-2.384l-4.242,0l0,2.384l4.242,0Zm0.185,-9.703l-4.438,0l0,2.445l4.438,0l0,-2.445Zm2.237,24.187l24.29,0l0,-2.388l-24.29,0l0,2.388Zm24.353,-7.267l0,-2.422l-24.319,0l0,2.422l24.319,0Zm-24.319,-7.248l24.319,0l0,-2.422l-24.319,0l0,2.422Zm24.407,-9.634l-24.38,0l0,2.412l24.38,0l0,-2.412Zm-24.355,36.26l-0.001,2.208l24.28,0l0.077,-2.208l-24.356,0Z" style="fill:#fff;fill-opacity:0;stroke:#000;stroke-width:1.03px;stroke-linecap:butt;stroke-miterlimit:1.41421;"/></g><g><circle cx="383.686" cy="251.686" r="40.686" style="fill:#fff;fill-opacity:0;stroke:#000;stroke-width:1.46px;"/><g><g><circle cx="383.686" cy="235.63" r="12.807" style="fill:none;stroke:#000;stroke-width:1.18px;stroke-miterlimit:10;"/><path d="M401.773,280.548l0,-17.45c0,-6.746 -5.387,-12.251 -11.968,-12.251l-12.239,0c-6.581,0 -11.968,5.517 -11.968,12.251l0,17.45l36.175,0Z" style="fill:none;stroke:#000;stroke-width:1.18px;stroke-miterlimit:10;"/></g></g></g><g><circle cx="83.686" cy="69.686" r="40.686" style="fill:#fff;fill-opacity:0;stroke:#000;stroke-width:1.46px;"/><g><path d="M57.089,59.539c-0.947,0 -1.711,0.87 -1.711,1.942l0,22.775c0,1.07 0.764,1.938 1.711,1.938l16.757,0c0.945,0 1.712,-0.868 1.712,-1.938l0,-22.775c0,-1.072 -0.767,-1.942 -1.712,-1.942l-16.757,0Zm0.022,2.336l16.713,0l0,20.277l-16.713,0l0,-20.277Zm6.062,22.138l4.59,0l0,0.567l-4.59,0l0,-0.567Z" style="fill:url(#_Radial1);fill-rule:nonzero;"/><path d="M80.953,51.851c-1.226,0 -2.221,0.999 -2.221,2.233l0,20.477c0,1.234 0.995,2.233 2.221,2.233l11.056,0c0,0 0.482,4.47 -3.351,4.47l0,2.237l13.411,0l0,-2.237c-3.982,0 -3.354,-4.47 -3.354,-4.47l11.062,0c1.225,0 2.217,-0.999 2.217,-2.233l0,-20.477c0,-1.234 -0.992,-2.233 -2.217,-2.233l-28.824,0Zm0.157,2.374l28.509,0l0,17.268l-28.509,0l0,-17.268Zm12.485,19.836c0,-1.059 0.858,-1.918 1.917,-1.918c1.06,0 1.917,0.859 1.917,1.918c0,1.058 -0.857,1.917 -1.917,1.917c-1.059,0 -1.917,-0.859 -1.917,-1.917Z" style="fill:url(#_Radial2);fill-rule:nonzero;"/><g><rect x="73.303" y="69.856" width="8.863" height="16.743" style="fill:#fff;"/><path d="M73.854,69.373c-0.729,0 -1.319,0.592 -1.319,1.322l0,15.505c0,0.729 0.59,1.321 1.319,1.321l7.637,0c0.729,0 1.321,-0.592 1.321,-1.321l0,-15.505c0,-0.73 -0.592,-1.322 -1.321,-1.322l-7.637,0Zm6.428,1.165c0,-0.187 0.151,-0.338 0.339,-0.338c0.186,0 0.338,0.151 0.338,0.338c0,0.187 -0.152,0.338 -0.338,0.338c-0.188,0 -0.339,-0.151 -0.339,-0.338Zm-4.379,-0.209l3.541,0l0,0.385l-3.541,0l0,-0.385Zm-2.379,1.274l8.297,0l0,11.723l-8.297,0l0,-11.723Zm3.306,13.77c0,-0.466 0.377,-0.844 0.843,-0.844c0.464,0 0.842,0.378 0.842,0.844c0,0.465 -0.378,0.843 -0.842,0.843c-0.466,0 -0.843,-0.378 -0.843,-0.843Z" style="fill:url(#_Radial3);fill-rule:nonzero;"/></g><g><path d="M74.707,74.079l5.729,0" style="fill:none;stroke:#000;stroke-width:0.24px;"/><path d="M74.707,75.514l5.729,0" style="fill:none;stroke:#000;stroke-width:0.24px;"/><path d="M74.707,76.949l5.729,0" style="fill:none;stroke:#000;stroke-width:0.24px;"/><path d="M74.707,78.385l5.729,0" style="fill:none;stroke:#000;stroke-width:0.24px;"/><path d="M74.707,79.82l5.729,0" style="fill:none;stroke:#000;stroke-width:0.24px;"/><path d="M74.707,81.255l5.729,0" style="fill:none;stroke:#000;stroke-width:0.24px;"/></g><g><path d="M86.513,57.793l17.498,0" style="fill:none;stroke:#000;stroke-width:0.2px;"/><path d="M86.513,59.228l17.498,0" style="fill:none;stroke:#000;stroke-width:0.2px;"/><path d="M86.513,60.663l17.498,0" style="fill:none;stroke:#000;stroke-width:0.2px;"/><path d="M86.513,62.099l17.498,0" style="fill:none;stroke:#000;stroke-width:0.2px;"/><path d="M86.513,63.534l17.498,0" style="fill:none;stroke:#000;stroke-width:0.2px;"/><path d="M86.513,64.912l17.498,0" style="fill:none;stroke:#000;stroke-width:0.2px;"/><path d="M86.513,66.347l17.498,0" style="fill:none;stroke:#000;stroke-width:0.2px;"/><path d="M86.513,67.783l17.498,0" style="fill:none;stroke:#000;stroke-width:0.2px;"/></g><g><path d="M59.796,64.862l11.343,0" style="fill:none;stroke:#000;stroke-width:0.28px;"/><path d="M59.796,67.704l11.343,0" style="fill:none;stroke:#000;stroke-width:0.28px;"/><path d="M59.796,70.546l11.343,0" style="fill:none;stroke:#000;stroke-width:0.28px;"/><path d="M59.796,73.388l11.343,0" style="fill:none;stroke:#000;stroke-width:0.28px;"/><path d="M59.796,76.23l11.343,0" style="fill:none;stroke:#000;stroke-width:0.28px;"/><path d="M59.796,79.072l11.343,0" style="fill:none;stroke:#000;stroke-width:0.28px;"/></g></g></g><g><circle cx="683.686" cy="69.686" r="40.686" style="fill:#fff;fill-opacity:0;stroke:#000;stroke-width:1.46px;"/><g><path d="M657.089,59.539c-0.947,0 -1.711,0.87 -1.711,1.942l0,22.775c0,1.07 0.764,1.938 1.711,1.938l16.757,0c0.945,0 1.712,-0.868 1.712,-1.938l0,-22.775c0,-1.072 -0.767,-1.942 -1.712,-1.942l-16.757,0Zm0.022,2.336l16.713,0l0,20.277l-16.713,0l0,-20.277Zm6.062,22.138l4.59,0l0,0.567l-4.59,0l0,-0.567Z" style="fill:url(#_Radial4);fill-rule:nonzero;"/><path d="M680.953,51.851c-1.226,0 -2.221,0.999 -2.221,2.233l0,20.477c0,1.234 0.995,2.233 2.221,2.233l11.056,0c0,0 0.482,4.47 -3.351,4.47l0,2.237l13.411,0l0,-2.237c-3.982,0 -3.354,-4.47 -3.354,-4.47l11.062,0c1.225,0 2.217,-0.999 2.217,-2.233l0,-20.477c0,-1.234 -0.992,-2.233 -2.217,-2.233l-28.824,0Zm0.157,2.374l28.509,0l0,17.268l-28.509,0l0,-17.268Zm12.485,19.836c0,-1.059 0.858,-1.918 1.917,-1.918c1.06,0 1.917,0.859 1.917,1.918c0,1.058 -0.857,1.917 -1.917,1.917c-1.059,0 -1.917,-0.859 -1.917,-1.917Z" style="fill:url(#_Radial5);fill-rule:nonzero;"/><g><rect x="673.303" y="69.856" width="8.863" height="16.743" style="fill:#fff;"/><path d="M673.854,69.373c-0.729,0 -1.319,0.592 -1.319,1.322l0,15.505c0,0.729 0.59,1.321 1.319,1.321l7.637,0c0.729,0 1.321,-0.592 1.321,-1.321l0,-15.505c0,-0.73 -0.592,-1.322 -1.321,-1.322l-7.637,0Zm6.428,1.165c0,-0.187 0.151,-0.338 0.339,-0.338c0.186,0 0.338,0.151 0.338,0.338c0,0.187 -0.152,0.338 -0.338,0.338c-0.188,0 -0.339,-0.151 -0.339,-0.338Zm-4.379,-0.209l3.541,0l0,0.385l-3.541,0l0,-0.385Zm-2.379,1.274l8.297,0l0,11.723l-8.297,0l0,-11.723Zm3.306,13.77c0,-0.466 0.377,-0.844 0.843,-0.844c0.464,0 0.842,0.378 0.842,0.844c0,0.465 -0.378,0.843 -0.842,0.843c-0.466,0 -0.843,-0.378 -0.843,-0.843Z" style="fill:url(#_Radial6);fill-rule:nonzero;"/></g><g><path d="M674.707,74.079l5.729,0" style="fill:none;stroke:#000;stroke-width:0.24px;"/><path d="M674.707,75.514l5.729,0" style="fill:none;stroke:#000;stroke-width:0.24px;"/><path d="M674.707,76.949l5.729,0" style="fill:none;stroke:#000;stroke-width:0.24px;"/><path d="M674.707,78.385l5.729,0" style="fill:none;stroke:#000;stroke-width:0.24px;"/><path d="M674.707,79.82l5.729,0" style="fill:none;stroke:#000;stroke-width:0.24px;"/><path d="M674.707,81.255l5.729,0" style="fill:none;stroke:#000;stroke-width:0.24px;"/></g><g><path d="M686.513,57.793l17.498,0" style="fill:none;stroke:#000;stroke-width:0.2px;"/><path d="M686.513,59.228l17.498,0" style="fill:none;stroke:#000;stroke-width:0.2px;"/><path d="M686.513,60.663l17.498,0" style="fill:none;stroke:#000;stroke-width:0.2px;"/><path d="M686.513,62.099l17.498,0" style="fill:none;stroke:#000;stroke-width:0.2px;"/><path d="M686.513,63.534l17.498,0" style="fill:none;stroke:#000;stroke-width:0.2px;"/><path d="M686.513,64.912l17.498,0" style="fill:none;stroke:#000;stroke-width:0.2px;"/><path d="M686.513,66.347l17.498,0" style="fill:none;stroke:#000;stroke-width:0.2px;"/><path d="M686.513,67.783l17.498,0" style="fill:none;stroke:#000;stroke-width:0.2px;"/></g><g><path d="M659.796,64.862l11.343,0" style="fill:none;stroke:#000;stroke-width:0.28px;"/><path d="M659.796,67.704l11.343,0" style="fill:none;stroke:#000;stroke-width:0.28px;"/><path d="M659.796,70.546l11.343,0" style="fill:none;stroke:#000;stroke-width:0.28px;"/><path d="M659.796,73.388l11.343,0" style="fill:none;stroke:#000;stroke-width:0.28px;"/><path d="M659.796,76.23l11.343,0" style="fill:none;stroke:#000;stroke-width:0.28px;"/><path d="M659.796,79.072l11.343,0" style="fill:none;stroke:#000;stroke-width:0.28px;"/></g></g></g><path d="M287.853,64.621l0,-11.302l0,-0.018l0,-0.072c0,-0.444 0.13,-0.829 0.391,-1.154c0.261,-0.325 0.57,-0.487 0.926,-0.487c0.386,0 0.702,0.153 0.947,0.461l13.183,16.411c0.248,0.308 0.371,0.701 0.371,1.18c0,0.015 0,0.031 0,0.046c0,0.015 0,0.03 0,0.045c0,0.479 -0.123,0.872 -0.371,1.18l-13.183,16.411c-0.245,0.308 -0.561,0.461 -0.947,0.461c-0.356,0 -0.665,-0.162 -0.926,-0.487c-0.261,-0.324 -0.391,-0.709 -0.391,-1.154l0,-0.072l0,-0.018l0,-11.301l-120.086,0c-0.177,-0.015 -0.355,-0.015 -0.531,-0.044c-0.528,-0.086 -1.041,-0.303 -1.503,-0.635c-0.308,-0.221 -0.591,-0.492 -0.842,-0.805c-0.887,-1.104 -1.321,-2.694 -1.157,-4.242c0.046,-0.439 0.139,-0.869 0.275,-1.278c0.204,-0.613 0.505,-1.174 0.882,-1.643c0.503,-0.626 1.137,-1.081 1.824,-1.311c0.458,-0.153 0.582,-0.134 1.052,-0.172l120.086,0Z"/><path d="M377.895,183.166l5.022,0l0.007,0.001l0.033,0c0.197,0 0.368,0.057 0.512,0.173c0.145,0.116 0.217,0.253 0.217,0.412c0,0.171 -0.068,0.311 -0.205,0.421l-7.292,5.857c-0.137,0.11 -0.312,0.165 -0.525,0.165c-0.006,0 -0.013,0 -0.02,0c-0.007,0 -0.013,0 -0.02,0c-0.213,0 -0.387,-0.055 -0.524,-0.165l-7.292,-5.857c-0.137,-0.11 -0.205,-0.25 -0.205,-0.421c0,-0.159 0.072,-0.296 0.216,-0.412c0.144,-0.116 0.315,-0.173 0.513,-0.173l0.032,0l0.008,-0.001l5.022,0l0,-53.359c0.006,-0.078 0.006,-0.157 0.019,-0.236c0.038,-0.234 0.135,-0.462 0.282,-0.667c0.098,-0.137 0.219,-0.263 0.358,-0.375c0.49,-0.394 1.197,-0.587 1.885,-0.514c0.195,0.021 0.386,0.062 0.567,0.122c0.273,0.091 0.522,0.225 0.731,0.392c0.278,0.224 0.48,0.505 0.582,0.811c0.068,0.203 0.06,0.258 0.077,0.467l0,53.359Z"/><path d="M391.895,135.029l5.022,0l0.007,0l0.033,0c0.197,0 0.368,-0.058 0.512,-0.174c0.145,-0.116 0.217,-0.253 0.217,-0.412c0,-0.171 -0.068,-0.311 -0.205,-0.42l-7.292,-5.858c-0.137,-0.11 -0.312,-0.165 -0.525,-0.165c-0.006,0 -0.013,0 -0.02,0c-0.007,0 -0.013,0 -0.02,0c-0.213,0 -0.387,0.055 -0.524,0.165l-7.292,5.858c-0.137,0.109 -0.205,0.249 -0.205,0.42c0,0.159 0.072,0.296 0.216,0.412c0.144,0.116 0.315,0.174 0.513,0.174l0.032,0l0.008,0l5.022,0l0,53.359c0.006,0.079 0.006,0.158 0.019,0.236c0.038,0.235 0.135,0.463 0.282,0.668c0.098,0.137 0.219,0.262 0.358,0.374c0.49,0.394 1.197,0.587 1.885,0.514c0.195,-0.02 0.386,-0.062 0.567,-0.122c0.273,-0.091 0.522,-0.224 0.731,-0.392c0.278,-0.223 0.48,-0.505 0.582,-0.81c0.068,-0.204 0.06,-0.259 0.077,-0.468l0,-53.359Z"/><path d="M587.853,64.621l0,-11.302l0,-0.018l0,-0.072c0,-0.444 0.13,-0.829 0.391,-1.154c0.261,-0.325 0.57,-0.487 0.926,-0.487c0.386,0 0.702,0.153 0.947,0.461l13.183,16.411c0.248,0.308 0.371,0.701 0.371,1.18c0,0.015 0,0.031 0,0.046c0,0.015 0,0.03 0,0.045c0,0.479 -0.123,0.872 -0.371,1.18l-13.183,16.411c-0.245,0.308 -0.561,0.461 -0.947,0.461c-0.356,0 -0.665,-0.162 -0.926,-0.487c-0.261,-0.324 -0.391,-0.709 -0.391,-1.154l0,-0.072l0,-0.018l0,-11.301l-120.086,0c-0.177,-0.015 -0.355,-0.015 -0.531,-0.044c-0.528,-0.086 -1.041,-0.303 -1.503,-0.635c-0.308,-0.221 -0.591,-0.492 -0.842,-0.805c-0.887,-1.104 -1.321,-2.694 -1.157,-4.242c0.046,-0.439 0.139,-0.869 0.275,-1.278c0.204,-0.613 0.505,-1.174 0.882,-1.643c0.503,-0.626 1.137,-1.081 1.824,-1.311c0.458,-0.153 0.582,-0.134 1.052,-0.172l120.086,0Z"/><text x="401.562px" y="169.403px" style="font-family:'ArialMT', 'Arial', sans-serif;font-size:30.632px;">QA</text></g><defs><radialGradient id="_Radial1" cx="0" cy="0" r="1" gradientUnits="userSpaceOnUse" gradientTransform="matrix(10.9581,0,0,12.4168,65.4677,72.8665)"><stop offset="0%" style="stop-color:#130c0e;stop-opacity:1"/><stop offset="100%" style="stop-color:#130c0e;stop-opacity:1"/></radialGradient><radialGradient id="_Radial2" cx="0" cy="0" r="1" gradientUnits="userSpaceOnUse" gradientTransform="matrix(16.2329,0,0,16.2329,95.3629,67.6756)"><stop offset="0%" style="stop-color:#130c0e;stop-opacity:1"/><stop offset="100%" style="stop-color:#130c0e;stop-opacity:1"/></radialGradient><radialGradient id="_Radial3" cx="0" cy="0" r="1" gradientUnits="userSpaceOnUse" gradientTransform="matrix(7.37367,0,0,7.37367,77.6731,78.4465)"><stop offset="0%" style="stop-color:#130c0e;stop-opacity:1"/><stop offset="100%" style="stop-color:#130c0e;stop-opacity:1"/></radialGradient><radialGradient id="_Radial4" cx="0" cy="0" r="1" gradientUnits="userSpaceOnUse" gradientTransform="matrix(10.9581,0,0,12.4168,665.468,72.8665)"><stop offset="0%" style="stop-color:#130c0e;stop-opacity:1"/><stop offset="100%" style="stop-color:#130c0e;stop-opacity:1"/></radialGradient><radialGradient id="_Radial5" cx="0" cy="0" r="1" gradientUnits="userSpaceOnUse" gradientTransform="matrix(16.2329,0,0,16.2329,695.363,67.6756)"><stop offset="0%" style="stop-color:#130c0e;stop-opacity:1"/><stop offset="100%" style="stop-color:#130c0e;stop-opacity:1"/></radialGradient><radialGradient id="_Radial6" cx="0" cy="0" r="1" gradientUnits="userSpaceOnUse" gradientTransform="matrix(7.37367,0,0,7.37367,677.673,78.4465)"><stop offset="0%" style="stop-color:#130c0e;stop-opacity:1"/><stop offset="100%" style="stop-color:#130c0e;stop-opacity:1"/></radialGradient></defs></svg>