<?xml version="1.0" encoding="UTF-8" standalone="no"?><!DOCTYPE svg PUBLIC "-//W3C//DTD SVG 1.1//EN" "http://www.w3.org/Graphics/SVG/1.1/DTD/svg11.dtd"><svg width="100%" height="100%" viewBox="0 0 1345 298" version="1.1" xmlns="http://www.w3.org/2000/svg" xmlns:xlink="http://www.w3.org/1999/xlink" xml:space="preserve" style="fill-rule:evenodd;clip-rule:evenodd;stroke-linecap:round;stroke-linejoin:round;stroke-miterlimit:1.5;"><g><g><circle cx="683.686" cy="143.882" r="40.686" style="fill:#fff;fill-opacity:0;stroke:#000;stroke-width:1.46px;"/><path id="list" d="M700.793,166.704l-33.999,0c-0.754,0 -1.986,-1.458 -1.986,-2.274l0,-41.451c0,-0.816 1.232,-1.919 1.986,-1.919l33.999,0c0.754,0 1.771,1.179 1.771,1.995l0,41.45c0,0.817 -1.017,2.199 -1.771,2.199Zm-25.244,-10.208l24.357,0l0,-2.347l-24.357,0l0,2.347Zm-6.671,7.196l4.3,0l0,-2.362l-4.3,0l0,2.362Zm-0.011,-7.142l4.356,0l0,-2.423l-4.356,0l0,2.423Zm-0.053,-7.278l4.369,-0.048l0,-2.401l-4.369,0.048l0,2.401Zm0.015,-9.607l0,2.384l4.242,0l0,-2.384l-4.242,0Zm4.242,-4.863l0,-2.385l-4.242,0l0,2.385l4.242,0Zm0.185,-9.704l-4.438,0l0,2.445l4.438,0l0,-2.445Zm2.237,24.187l24.29,0l0,-2.388l-24.29,0l0,2.388Zm24.353,-7.267l0,-2.422l-24.319,0l0,2.422l24.319,0Zm-24.319,-7.248l24.319,0l0,-2.422l-24.319,0l0,2.422Zm24.407,-9.633l-24.38,0l0,2.411l24.38,0l0,-2.411Zm-24.355,36.259l-0.001,2.208l24.28,0l0.077,-2.208l-24.356,0Z" style="fill:#fff;fill-opacity:0;stroke:#000;stroke-width:1.03px;stroke-linecap:butt;stroke-miterlimit:1.41421;"/></g><g><circle cx="683.686" cy="233.794" r="40.686" style="fill:#fff;fill-opacity:0;stroke:#000;stroke-width:1.46px;"/><path id="list1" d="M700.793,256.617l-33.999,0c-0.754,0 -1.986,-1.458 -1.986,-2.274l0,-41.451c0,-0.816 1.232,-1.92 1.986,-1.92l33.999,0c0.754,0 1.771,1.179 1.771,1.996l0,41.45c0,0.816 -1.017,2.199 -1.771,2.199Zm-25.244,-10.209l24.357,0l0,-2.346l-24.357,0l0,2.346Zm-6.671,7.197l4.3,0l0,-2.362l-4.3,0l0,2.362Zm-0.011,-7.142l4.356,0l0,-2.424l-4.356,0l0,2.424Zm-0.053,-7.279l4.369,-0.048l0,-2.4l-4.369,0.048l0,2.4Zm0.015,-9.606l0,2.384l4.242,0l0,-2.384l-4.242,0Zm4.242,-4.864l0,-2.384l-4.242,0l0,2.384l4.242,0Zm0.185,-9.703l-4.438,0l0,2.444l4.438,0l0,-2.444Zm2.237,24.187l24.29,0l0,-2.389l-24.29,0l0,2.389Zm24.353,-7.267l0,-2.422l-24.319,0l0,2.422l24.319,0Zm-24.319,-7.248l24.319,0l0,-2.422l-24.319,0l0,2.422Zm24.407,-9.634l-24.38,0l0,2.412l24.38,0l0,-2.412Zm-24.355,36.259l-0.001,2.209l24.28,0l0.077,-2.209l-24.356,0Z" style="fill:#fff;fill-opacity:0;stroke:#000;stroke-width:1.03px;stroke-linecap:butt;stroke-miterlimit:1.41421;"/></g><g><g><circle cx="383.686" cy="39.496" r="12.807" style="fill:none;stroke:#000;stroke-width:1.18px;stroke-miterlimit:10;"/><path d="M401.773,84.414l0,-17.45c0,-6.746 -5.387,-12.251 -11.968,-12.251l-12.239,0c-6.581,0 -11.968,5.517 -11.968,12.251l0,17.45l36.175,0Z" style="fill:none;stroke:#000;stroke-width:1.18px;stroke-miterlimit:10;"/></g></g><g><g><circle cx="383.686" cy="144.423" r="40.686" style="fill:#fff;fill-opacity:0;stroke:#000;stroke-width:1.46px;"/><g><g><circle cx="383.686" cy="128.367" r="12.807" style="fill:none;stroke:#000;stroke-width:1.18px;stroke-miterlimit:10;"/><path d="M401.773,173.285l0,-17.45c0,-6.745 -5.387,-12.251 -11.968,-12.251l-12.239,0c-6.581,0 -11.968,5.517 -11.968,12.251l0,17.45l36.175,0Z" style="fill:none;stroke:#000;stroke-width:1.18px;stroke-miterlimit:10;"/></g></g></g><path d="M587.853,139.358l0,-11.302l0,-0.017l0,-0.073c0,-0.444 0.13,-0.829 0.391,-1.154c0.261,-0.324 0.57,-0.487 0.926,-0.487c0.386,0 0.702,0.154 0.947,0.462l13.183,16.411c0.248,0.308 0.371,0.7 0.371,1.179c0,0.016 0,0.031 0,0.046c0,0.015 0,0.03 0,0.046c0,0.479 -0.123,0.871 -0.371,1.179l-13.183,16.411c-0.245,0.308 -0.561,0.462 -0.947,0.462c-0.356,0 -0.665,-0.163 -0.926,-0.488c-0.261,-0.324 -0.391,-0.709 -0.391,-1.153l0,-0.073l0,-0.017l0,-11.302l-120.086,0c-0.177,-0.015 -0.355,-0.015 -0.531,-0.044c-0.528,-0.086 -1.041,-0.303 -1.503,-0.635c-0.308,-0.221 -0.591,-0.492 -0.842,-0.805c-0.887,-1.104 -1.321,-2.694 -1.157,-4.242c0.046,-0.439 0.139,-0.868 0.275,-1.277c0.204,-0.613 0.505,-1.174 0.882,-1.644c0.503,-0.626 1.137,-1.081 1.824,-1.31c0.458,-0.153 0.582,-0.135 1.052,-0.173l120.086,0Z"/></g><g><g><circle cx="383.686" cy="233.294" r="40.686" style="fill:#fff;fill-opacity:0;stroke:#000;stroke-width:1.46px;"/><g><g><circle cx="383.686" cy="217.239" r="12.807" style="fill:none;stroke:#000;stroke-width:1.18px;stroke-miterlimit:10;"/><path d="M401.773,262.157l0,-17.45c0,-6.746 -5.387,-12.251 -11.968,-12.251l-12.239,0c-6.581,0 -11.968,5.517 -11.968,12.251l0,17.45l36.175,0Z" style="fill:none;stroke:#000;stroke-width:1.18px;stroke-miterlimit:10;"/></g></g></g><path d="M587.853,228.229l0,-11.301l0,-0.018l0,-0.072c0,-0.445 0.13,-0.83 0.391,-1.154c0.261,-0.325 0.57,-0.487 0.926,-0.487c0.386,0 0.702,0.153 0.947,0.461l13.183,16.411c0.248,0.308 0.371,0.701 0.371,1.18c0,0.015 0,0.03 0,0.045c0,0.015 0,0.031 0,0.046c0,0.479 -0.123,0.872 -0.371,1.18l-13.183,16.411c-0.245,0.308 -0.561,0.461 -0.947,0.461c-0.356,0 -0.665,-0.162 -0.926,-0.487c-0.261,-0.325 -0.391,-0.71 -0.391,-1.154l0,-0.072l0,-0.018l0,-11.302l-120.086,0c-0.177,-0.014 -0.355,-0.014 -0.531,-0.043c-0.528,-0.087 -1.041,-0.304 -1.503,-0.635c-0.308,-0.222 -0.591,-0.492 -0.842,-0.805c-0.887,-1.105 -1.321,-2.695 -1.157,-4.243c0.046,-0.439 0.139,-0.868 0.275,-1.277c0.204,-0.613 0.505,-1.174 0.882,-1.643c0.503,-0.626 1.137,-1.082 1.824,-1.311c0.458,-0.153 0.582,-0.134 1.052,-0.173l120.086,0Z"/></g><g><circle cx="83.686" cy="141.923" r="40.686" style="fill:#fff;fill-opacity:0;stroke:#000;stroke-width:1.46px;"/><g><path d="M73.276,122.24c-0.307,0 -2.317,5.414 -2.317,5.414l-2.454,0.993c0,0 -5.443,-2.311 -5.654,-2.105l-3.119,3.055c-0.217,0.212 2.269,5.432 2.269,5.432l-1.014,2.408c0,0 -5.517,2.124 -5.517,2.41l0,4.326c0,0.302 5.531,2.272 5.531,2.272l1.011,2.405c0,0 -2.361,5.323 -2.149,5.529l3.12,3.06c0.213,0.206 5.547,-2.228 5.547,-2.228l2.462,0.997c0,0 2.169,5.398 2.471,5.398l4.411,0c0.304,0 2.319,-5.414 2.319,-5.414l2.462,-0.995c0,0 5.43,2.311 5.641,2.11l3.123,-3.055c0.217,-0.215 -2.268,-5.432 -2.268,-5.432l1.015,-2.408c0,0 5.515,-2.13 5.515,-2.419l0,-4.322c0,-0.299 -5.529,-2.262 -5.529,-2.262l-1.014,-2.412c0,0 2.36,-5.329 2.152,-5.535l-3.125,-3.052c-0.217,-0.21 -5.545,2.223 -5.545,2.223l-2.465,-0.993c0,0 -2.166,-5.4 -2.465,-5.4l-4.414,0Zm-4.147,19.682c0,-3.477 2.895,-6.302 6.447,-6.302c3.551,0 6.445,2.825 6.445,6.302c0,3.478 -2.894,6.307 -6.445,6.307c-3.552,0 -6.447,-2.829 -6.447,-6.307Z" style="fill:#fff;fill-rule:nonzero;stroke:#000;stroke-width:3px;stroke-linecap:butt;stroke-miterlimit:1.41421;"/><path d="M103.808,144.308l-1.244,-0.081c0,0 -1.767,-2.142 -1.895,-2.098l-1.973,0.679c-0.133,0.048 -0.236,2.838 -0.236,2.838l-0.945,0.841c0,0 -2.772,-0.23 -2.838,-0.101l-0.941,1.884c-0.064,0.132 1.817,2.146 1.817,2.146l-0.1,1.262c0,0 -2.145,1.819 -2.106,1.952l0.637,1.987c0.043,0.141 2.803,0.189 2.803,0.189l0.809,0.946c0,0 -0.274,2.812 -0.149,2.874l1.845,0.923c0.125,0.064 2.145,-1.878 2.145,-1.878l1.244,0.087c0,0 1.769,2.142 1.905,2.096l1.968,-0.682c0.137,-0.047 0.234,-2.836 0.234,-2.836l0.949,-0.841c0,0 2.77,0.233 2.832,0.105l0.943,-1.884c0.065,-0.129 -1.811,-2.147 -1.811,-2.147l0.1,-1.258c0,0 2.147,-1.828 2.099,-1.958l-0.635,-1.991c-0.042,-0.135 -2.799,-0.186 -2.799,-0.186l-0.809,-0.949c0,0 0.273,-2.806 0.147,-2.87l-1.842,-0.922c-0.001,0 -0.003,-0.001 -0.004,-0.001c-0.158,-0.036 -2.15,1.874 -2.15,1.874Zm-2.562,9.934c-1.484,-0.743 -2.069,-2.583 -1.311,-4.096c0.76,-1.516 2.584,-2.145 4.069,-1.404c1.482,0.743 2.068,2.582 1.308,4.099c-0.645,1.291 -2.068,1.94 -3.396,1.64c-0.227,-0.05 -0.452,-0.13 -0.67,-0.239Z" style="fill:#fff;fill-rule:nonzero;stroke:#000;stroke-width:3px;stroke-linecap:butt;stroke-miterlimit:1.41421;"/></g></g><g><circle cx="1283.69" cy="139.964" r="40.686" style="fill:#fff;fill-opacity:0;stroke:#000;stroke-width:1.46px;"/><g><path d="M1257.09,129.817c-0.947,0 -1.711,0.87 -1.711,1.942l0,22.775c0,1.07 0.764,1.939 1.711,1.939l16.757,0c0.945,0 1.712,-0.869 1.712,-1.939l0,-22.775c0,-1.072 -0.767,-1.942 -1.712,-1.942l-16.757,0Zm0.022,2.336l16.713,0l0,20.277l-16.713,0l0,-20.277Zm6.062,22.139l4.59,0l0,0.567l-4.59,0l0,-0.567Z" style="fill:url(#_Radial1);fill-rule:nonzero;"/><path d="M1280.95,122.129c-1.226,0 -2.221,0.999 -2.221,2.233l0,20.477c0,1.234 0.995,2.233 2.221,2.233l11.056,0c0,0 0.482,4.47 -3.351,4.47l0,2.237l13.411,0l0,-2.237c-3.982,0 -3.354,-4.47 -3.354,-4.47l11.062,0c1.225,0 2.217,-0.999 2.217,-2.233l0,-20.477c0,-1.234 -0.992,-2.233 -2.217,-2.233l-28.824,0Zm0.157,2.374l28.509,0l0,17.268l-28.509,0l0,-17.268Zm12.485,19.837c0,-1.06 0.858,-1.919 1.917,-1.919c1.06,0 1.917,0.859 1.917,1.919c0,1.058 -0.857,1.917 -1.917,1.917c-1.059,0 -1.917,-0.859 -1.917,-1.917Z" style="fill:url(#_Radial2);fill-rule:nonzero;"/><g><rect x="1273.3" y="140.134" width="8.863" height="16.743" style="fill:#fff;"/><path d="M1273.85,139.651c-0.729,0 -1.319,0.592 -1.319,1.322l0,15.505c0,0.729 0.59,1.321 1.319,1.321l7.637,0c0.729,0 1.321,-0.592 1.321,-1.321l0,-15.505c0,-0.73 -0.592,-1.322 -1.321,-1.322l-7.637,0Zm6.428,1.165c0,-0.186 0.151,-0.338 0.339,-0.338c0.186,0 0.338,0.152 0.338,0.338c0,0.187 -0.152,0.338 -0.338,0.338c-0.188,0 -0.339,-0.151 -0.339,-0.338Zm-4.379,-0.209l3.541,0l0,0.386l-3.541,0l0,-0.386Zm-2.379,1.274l8.297,0l0,11.724l-8.297,0l0,-11.724Zm3.306,13.77c0,-0.466 0.377,-0.843 0.843,-0.843c0.464,0 0.842,0.377 0.842,0.843c0,0.465 -0.378,0.843 -0.842,0.843c-0.466,0 -0.843,-0.378 -0.843,-0.843Z" style="fill:url(#_Radial3);fill-rule:nonzero;"/></g><g><path d="M1274.71,144.357l5.729,0" style="fill:none;stroke:#000;stroke-width:0.24px;"/><path d="M1274.71,145.792l5.729,0" style="fill:none;stroke:#000;stroke-width:0.24px;"/><path d="M1274.71,147.228l5.729,0" style="fill:none;stroke:#000;stroke-width:0.24px;"/><path d="M1274.71,148.663l5.729,0" style="fill:none;stroke:#000;stroke-width:0.24px;"/><path d="M1274.71,150.098l5.729,0" style="fill:none;stroke:#000;stroke-width:0.24px;"/><path d="M1274.71,151.534l5.729,0" style="fill:none;stroke:#000;stroke-width:0.24px;"/></g><g><path d="M1286.51,128.071l17.498,0" style="fill:none;stroke:#000;stroke-width:0.2px;"/><path d="M1286.51,129.506l17.498,0" style="fill:none;stroke:#000;stroke-width:0.2px;"/><path d="M1286.51,130.942l17.498,0" style="fill:none;stroke:#000;stroke-width:0.2px;"/><path d="M1286.51,132.377l17.498,0" style="fill:none;stroke:#000;stroke-width:0.2px;"/><path d="M1286.51,133.812l17.498,0" style="fill:none;stroke:#000;stroke-width:0.2px;"/><path d="M1286.51,135.19l17.498,0" style="fill:none;stroke:#000;stroke-width:0.2px;"/><path d="M1286.51,136.626l17.498,0" style="fill:none;stroke:#000;stroke-width:0.2px;"/><path d="M1286.51,138.061l17.498,0" style="fill:none;stroke:#000;stroke-width:0.2px;"/></g><g><path d="M1259.8,135.14l11.343,0" style="fill:none;stroke:#000;stroke-width:0.28px;"/><path d="M1259.8,137.982l11.343,0" style="fill:none;stroke:#000;stroke-width:0.28px;"/><path d="M1259.8,140.824l11.343,0" style="fill:none;stroke:#000;stroke-width:0.28px;"/><path d="M1259.8,143.666l11.343,0" style="fill:none;stroke:#000;stroke-width:0.28px;"/><path d="M1259.8,146.508l11.343,0" style="fill:none;stroke:#000;stroke-width:0.28px;"/><path d="M1259.8,149.35l11.343,0" style="fill:none;stroke:#000;stroke-width:0.28px;"/></g></g></g><g><path d="M287.834,149.804l0,11.302l0,0.018l0,0.072c0,0.445 0.131,0.83 0.391,1.154c0.261,0.325 0.57,0.487 0.927,0.487c0.385,0 0.701,-0.153 0.947,-0.461l13.182,-16.411c0.248,-0.308 0.372,-0.701 0.372,-1.18c0,-0.015 0,-0.03 -0.001,-0.046c0.001,-0.015 0.001,-0.03 0.001,-0.045c0,-0.479 -0.124,-0.872 -0.372,-1.18l-13.182,-16.411c-0.246,-0.308 -0.562,-0.461 -0.947,-0.461c-0.357,0 -0.666,0.162 -0.927,0.487c-0.26,0.324 -0.391,0.709 -0.391,1.154l0,0.072l0,0.018l0,11.302l-120.085,0c-0.177,0.014 -0.355,0.014 -0.531,0.043c-0.529,0.087 -1.042,0.303 -1.503,0.635c-0.308,0.222 -0.592,0.492 -0.843,0.805c-0.887,1.104 -1.321,2.694 -1.157,4.243c0.047,0.438 0.139,0.868 0.275,1.277c0.204,0.613 0.505,1.174 0.882,1.643c0.503,0.626 1.137,1.082 1.824,1.311c0.458,0.153 0.582,0.134 1.053,0.172l120.085,0Z"/><path d="M281.825,221.32l-2.925,10.916l-0.004,0.018l-0.019,0.07c-0.115,0.429 -0.089,0.834 0.079,1.215c0.168,0.382 0.424,0.618 0.769,0.711c0.372,0.099 0.717,0.033 1.034,-0.201l16.981,-12.44c0.319,-0.233 0.54,-0.581 0.664,-1.043c0.004,-0.015 0.008,-0.03 0.011,-0.044c0.004,-0.015 0.009,-0.03 0.013,-0.044c0.123,-0.463 0.106,-0.874 -0.054,-1.236l-8.486,-19.264c-0.158,-0.361 -0.423,-0.591 -0.795,-0.69c-0.345,-0.093 -0.685,-0.016 -1.021,0.23c-0.336,0.246 -0.561,0.584 -0.676,1.014l-0.019,0.069l-0.005,0.018l-2.925,10.916l-115.994,-31.08c-0.174,-0.032 -0.346,-0.078 -0.524,-0.096c-0.532,-0.053 -1.084,0.024 -1.616,0.225c-0.355,0.134 -0.698,0.322 -1.022,0.559c-1.143,0.837 -1.973,2.261 -2.216,3.799c-0.068,0.436 -0.09,0.874 -0.065,1.305c0.039,0.644 0.184,1.264 0.427,1.815c0.324,0.735 0.818,1.339 1.422,1.738c0.404,0.267 0.528,0.281 0.973,0.439l115.993,31.081Z"/><path d="M284.447,75.714l2.925,10.917l0.005,0.017l0.019,0.07c0.115,0.429 0.34,0.767 0.676,1.013c0.336,0.246 0.676,0.323 1.021,0.231c0.372,-0.1 0.637,-0.33 0.795,-0.691l8.486,-19.264c0.16,-0.361 0.177,-0.773 0.054,-1.235c-0.004,-0.015 -0.009,-0.03 -0.013,-0.044c-0.003,-0.015 -0.007,-0.03 -0.011,-0.044c-0.124,-0.463 -0.345,-0.81 -0.664,-1.044l-16.981,-12.44c-0.317,-0.233 -0.662,-0.3 -1.034,-0.2c-0.345,0.092 -0.601,0.329 -0.769,0.71c-0.168,0.381 -0.194,0.787 -0.079,1.216l0.019,0.07l0.004,0.017l2.925,10.917l-115.993,31.08c-0.168,0.06 -0.34,0.106 -0.502,0.179c-0.488,0.221 -0.928,0.563 -1.288,1.003c-0.24,0.293 -0.443,0.628 -0.605,0.995c-0.571,1.297 -0.578,2.945 -0.019,4.398c0.158,0.412 0.358,0.803 0.596,1.162c0.355,0.54 0.791,1.004 1.277,1.359c0.648,0.475 1.378,0.751 2.101,0.794c0.482,0.029 0.597,-0.021 1.061,-0.105l115.994,-31.081Z"/></g><g><path d="M888.153,135.473l0,-11.302l0,-0.018l0,-0.072c0,-0.444 0.13,-0.829 0.391,-1.154c0.261,-0.325 0.57,-0.487 0.927,-0.487c0.385,0 0.701,0.153 0.946,0.461l13.183,16.411c0.248,0.308 0.371,0.701 0.371,1.18c0,0.015 0,0.031 0,0.046c0,0.015 0,0.03 0,0.045c0,0.479 -0.123,0.872 -0.371,1.18l-13.183,16.411c-0.245,0.308 -0.561,0.461 -0.946,0.461c-0.357,0 -0.666,-0.162 -0.927,-0.487c-0.261,-0.324 -0.391,-0.709 -0.391,-1.154l0,-0.072l0,-0.018l0,-11.301l-120.085,0c-0.177,-0.015 -0.356,-0.015 -0.531,-0.044c-0.529,-0.086 -1.042,-0.303 -1.504,-0.635c-0.308,-0.221 -0.591,-0.492 -0.842,-0.805c-0.887,-1.104 -1.321,-2.694 -1.157,-4.242c0.046,-0.439 0.139,-0.869 0.275,-1.278c0.204,-0.613 0.505,-1.174 0.882,-1.643c0.503,-0.626 1.137,-1.081 1.824,-1.311c0.458,-0.153 0.582,-0.134 1.053,-0.172l120.085,0Z"/><path d="M887.229,92.929l3.341,-10.797l0.006,-0.017l0.021,-0.069c0.131,-0.425 0.37,-0.754 0.715,-0.987c0.345,-0.233 0.688,-0.297 1.029,-0.191c0.368,0.114 0.624,0.354 0.768,0.72l7.742,19.575c0.146,0.368 0.148,0.779 0.006,1.237c-0.004,0.014 -0.009,0.029 -0.014,0.043c-0.004,0.015 -0.008,0.029 -0.013,0.044c-0.142,0.458 -0.375,0.796 -0.703,1.017l-17.445,11.781c-0.326,0.221 -0.673,0.274 -1.041,0.16c-0.341,-0.105 -0.588,-0.351 -0.741,-0.739c-0.153,-0.387 -0.164,-0.793 -0.033,-1.218l0.022,-0.069l0.005,-0.017l3.341,-10.796l-114.719,-35.5c-0.164,-0.066 -0.335,-0.119 -0.494,-0.198c-0.479,-0.239 -0.905,-0.598 -1.248,-1.051c-0.229,-0.303 -0.42,-0.645 -0.567,-1.018c-0.521,-1.317 -0.465,-2.964 0.149,-4.395c0.174,-0.406 0.389,-0.789 0.64,-1.139c0.376,-0.525 0.83,-0.972 1.328,-1.309c0.666,-0.449 1.406,-0.697 2.13,-0.713c0.483,-0.011 0.596,0.044 1.057,0.146l114.718,35.5Z"/><path d="M884.943,180.265l-2.956,-10.908l-0.004,-0.017l-0.019,-0.07c-0.117,-0.429 -0.092,-0.834 0.075,-1.216c0.167,-0.382 0.423,-0.619 0.767,-0.712c0.372,-0.101 0.717,-0.036 1.035,0.197l17.016,12.392c0.319,0.233 0.541,0.58 0.666,1.042c0.004,0.015 0.008,0.029 0.012,0.044c0.004,0.014 0.008,0.029 0.012,0.044c0.126,0.462 0.109,0.873 -0.049,1.236l-8.432,19.287c-0.157,0.362 -0.422,0.592 -0.794,0.693c-0.344,0.093 -0.684,0.018 -1.021,-0.228c-0.336,-0.245 -0.563,-0.582 -0.679,-1.011l-0.019,-0.07l-0.005,-0.017l-2.956,-10.908l-115.905,31.407c-0.175,0.032 -0.347,0.079 -0.524,0.097c-0.533,0.055 -1.085,-0.02 -1.617,-0.22c-0.355,-0.133 -0.699,-0.32 -1.024,-0.557c-1.145,-0.833 -1.979,-2.255 -2.226,-3.792c-0.07,-0.436 -0.093,-0.874 -0.069,-1.304c0.037,-0.645 0.181,-1.266 0.422,-1.817c0.321,-0.736 0.814,-1.341 1.417,-1.742c0.403,-0.268 0.527,-0.282 0.971,-0.442l115.906,-31.408Z"/></g><path d="M1178.93,134.899l0,-11.302l0,-0.017l0,-0.073c0,-0.444 0.131,-0.829 0.391,-1.153c0.261,-0.325 0.57,-0.488 0.927,-0.488c0.385,0 0.701,0.154 0.947,0.462l13.182,16.411c0.248,0.308 0.372,0.7 0.372,1.179c0,0.016 0,0.031 -0.001,0.046c0.001,0.015 0.001,0.03 0.001,0.046c0,0.479 -0.124,0.871 -0.372,1.179l-13.182,16.411c-0.246,0.308 -0.562,0.462 -0.947,0.462c-0.357,0 -0.666,-0.163 -0.927,-0.487c-0.26,-0.325 -0.391,-0.71 -0.391,-1.154l0,-0.073l0,-0.017l0,-11.302l-120.085,0c-0.177,-0.015 -0.355,-0.015 -0.531,-0.043c-0.529,-0.087 -1.042,-0.304 -1.503,-0.636c-0.308,-0.221 -0.592,-0.492 -0.843,-0.805c-0.887,-1.104 -1.32,-2.694 -1.157,-4.242c0.047,-0.439 0.139,-0.868 0.275,-1.277c0.204,-0.613 0.505,-1.174 0.882,-1.643c0.503,-0.627 1.137,-1.082 1.824,-1.311c0.458,-0.153 0.582,-0.134 1.053,-0.173l120.085,0Z"/><g><circle cx="974.768" cy="139.964" r="44.454" style="fill:#fff;fill-opacity:0;stroke:#000;stroke-width:1.6px;"/><path d="M987.784,143.055c-1.212,0.033 -2.422,0.105 -3.626,0.251c-0.988,0.119 -1.973,0.287 -2.938,0.538c-0.206,0.054 -0.411,0.111 -0.615,0.174c-1.021,0.311 -2.021,0.735 -2.892,1.36c-0.165,0.118 -0.325,0.243 -0.479,0.375c-0.429,0.367 -0.809,0.787 -1.146,1.24c-0.435,0.582 -0.799,1.213 -1.147,1.85c-0.071,0.13 -0.141,0.26 -0.21,0.391c-0.284,0.534 -0.561,1.071 -0.85,1.602c-0.27,0.497 -0.55,0.988 -0.85,1.467c-0.358,0.573 -0.743,1.128 -1.164,1.657c-0.445,0.56 -0.929,1.089 -1.45,1.58c-0.389,0.367 -0.798,0.712 -1.225,1.034c-0.3,0.227 -0.608,0.442 -0.924,0.646c-1.765,1.141 -3.741,1.918 -5.764,2.465c-0.325,0.088 -0.652,0.171 -0.981,0.247c-0.386,0.091 -0.774,0.174 -1.164,0.251c-0.55,0.108 -1.103,0.203 -1.657,0.288c-0.697,0.105 -1.396,0.194 -2.096,0.267c-0.989,0.105 -1.981,0.181 -2.974,0.235c-1.365,0.074 -2.732,0.106 -4.099,0.111c-0.268,0 -0.536,-0.001 -0.804,-0.002c-0.204,-0.001 -0.408,-0.003 -0.613,-0.005l0.067,-6.051c2.168,0.024 4.339,-0.016 6.501,-0.187c0.915,-0.072 1.828,-0.168 2.737,-0.296c0.809,-0.115 1.615,-0.255 2.414,-0.432c0.579,-0.128 1.155,-0.276 1.722,-0.449c0.559,-0.17 1.11,-0.365 1.647,-0.593c0.975,-0.413 1.907,-0.939 2.718,-1.624c0.269,-0.228 0.525,-0.473 0.765,-0.733c0.243,-0.263 0.47,-0.541 0.682,-0.83c0.45,-0.612 0.832,-1.27 1.196,-1.937c0.071,-0.131 0.142,-0.263 0.212,-0.395c0.51,-0.963 1.005,-1.935 1.576,-2.864c0.289,-0.471 0.597,-0.93 0.929,-1.371c0.36,-0.478 0.749,-0.935 1.168,-1.363c0.452,-0.463 0.938,-0.892 1.453,-1.283c0.309,-0.234 0.629,-0.455 0.957,-0.661l0.07,-0.044l-0.07,-0.043c-0.328,-0.207 -0.648,-0.428 -0.957,-0.662c-0.515,-0.391 -1.001,-0.82 -1.453,-1.283c-0.419,-0.428 -0.808,-0.885 -1.168,-1.363c-0.332,-0.441 -0.64,-0.9 -0.929,-1.37c-0.571,-0.93 -1.066,-1.902 -1.576,-2.865c-0.07,-0.132 -0.141,-0.264 -0.212,-0.395c-0.364,-0.667 -0.746,-1.325 -1.196,-1.937c-0.212,-0.289 -0.439,-0.567 -0.682,-0.83c-0.24,-0.26 -0.496,-0.504 -0.765,-0.732c-0.811,-0.686 -1.743,-1.211 -2.718,-1.625c-0.537,-0.228 -1.088,-0.423 -1.647,-0.593c-0.567,-0.173 -1.143,-0.321 -1.722,-0.449c-0.799,-0.177 -1.605,-0.317 -2.414,-0.431c-0.909,-0.129 -1.822,-0.225 -2.737,-0.297c-2.162,-0.17 -4.333,-0.211 -6.501,-0.187l-0.067,-6.05c0.205,-0.003 0.409,-0.005 0.613,-0.006c0.268,-0.001 0.536,-0.002 0.804,-0.001c1.367,0.004 2.734,0.036 4.099,0.11c0.993,0.054 1.985,0.13 2.974,0.235c0.7,0.074 1.399,0.162 2.096,0.268c0.554,0.084 1.107,0.179 1.657,0.287c0.39,0.077 0.778,0.16 1.164,0.251c0.329,0.077 0.656,0.159 0.981,0.247c2.023,0.547 3.999,1.325 5.764,2.465c0.316,0.204 0.624,0.419 0.924,0.646c0.427,0.322 0.836,0.667 1.225,1.034c0.521,0.491 1.005,1.02 1.45,1.58c0.421,0.529 0.806,1.084 1.164,1.657c0.3,0.479 0.58,0.97 0.85,1.467c0.289,0.531 0.566,1.068 0.85,1.602c0.069,0.131 0.139,0.261 0.21,0.391c0.348,0.637 0.712,1.268 1.147,1.851c0.337,0.452 0.717,0.872 1.146,1.239c0.154,0.132 0.314,0.257 0.479,0.375c0.871,0.625 1.871,1.049 2.892,1.361c0.204,0.062 0.409,0.119 0.615,0.173c0.965,0.251 1.95,0.419 2.938,0.538c1.204,0.146 2.414,0.219 3.626,0.251c0,-0.163 0.001,-0.323 0.001,-0.48l0,-1.112l0,-6.817l0.001,-0.012l0,-0.051c0,-0.307 0.112,-0.574 0.337,-0.798c0.224,-0.225 0.491,-0.338 0.798,-0.338c0.332,0 0.604,0.107 0.816,0.32l11.363,11.361c0.213,0.214 0.32,0.486 0.32,0.817c0,0.011 -0.001,0.021 -0.001,0.032c0,0.01 0.001,0.021 0.001,0.031c0,0.332 -0.107,0.604 -0.32,0.817l-11.363,11.362c-0.212,0.213 -0.484,0.319 -0.816,0.319c-0.307,0 -0.574,-0.112 -0.798,-0.337c-0.225,-0.225 -0.337,-0.491 -0.337,-0.799l0,-0.05l-0.001,-0.012l0,-6.817l0,-1.112l-0.001,-0.142Z" style="fill:#fff;stroke:#000;stroke-width:2.1px;stroke-linecap:butt;stroke-miterlimit:1.41421;"/></g></g><g><circle cx="683.686" cy="55.552" r="40.686" style="fill:#fff;fill-opacity:0;stroke:#000;stroke-width:1.46px;"/><path id="list2" d="M700.793,78.374l-33.999,0c-0.754,0 -1.986,-1.458 -1.986,-2.274l0,-41.451c0,-0.816 1.232,-1.92 1.986,-1.92l33.999,0c0.754,0 1.771,1.179 1.771,1.996l0,41.45c0,0.816 -1.017,2.199 -1.771,2.199Zm-25.244,-10.208l24.357,0l0,-2.347l-24.357,0l0,2.347Zm-6.671,7.196l4.3,0l0,-2.362l-4.3,0l0,2.362Zm-0.011,-7.142l4.356,0l0,-2.423l-4.356,0l0,2.423Zm-0.053,-7.279l4.369,-0.048l0,-2.4l-4.369,0.048l0,2.4Zm0.015,-9.606l0,2.384l4.242,0l0,-2.384l-4.242,0Zm4.242,-4.864l0,-2.384l-4.242,0l0,2.384l4.242,0Zm0.185,-9.703l-4.438,0l0,2.444l4.438,0l0,-2.444Zm2.237,24.187l24.29,0l0,-2.388l-24.29,0l0,2.388Zm24.353,-7.267l0,-2.422l-24.319,0l0,2.422l24.319,0Zm-24.319,-7.248l24.319,0l0,-2.422l-24.319,0l0,2.422Zm24.407,-9.634l-24.38,0l0,2.412l24.38,0l0,-2.412Zm-24.355,36.26l-0.001,2.208l24.28,0l0.077,-2.208l-24.356,0Z" style="fill:#fff;fill-opacity:0;stroke:#000;stroke-width:1.03px;stroke-linecap:butt;stroke-miterlimit:1.41421;"/></g><g><circle cx="383.686" cy="55.552" r="40.686" style="fill:#fff;fill-opacity:0;stroke:#000;stroke-width:1.46px;"/><path d="M587.853,50.487l0,-11.302l0,-0.018l0,-0.072c0,-0.445 0.13,-0.83 0.391,-1.154c0.261,-0.325 0.57,-0.487 0.926,-0.487c0.386,0 0.702,0.153 0.947,0.461l13.183,16.411c0.248,0.308 0.371,0.701 0.371,1.18c0,0.015 0,0.03 0,0.046c0,0.015 0,0.03 0,0.045c0,0.479 -0.123,0.872 -0.371,1.18l-13.183,16.411c-0.245,0.308 -0.561,0.461 -0.947,0.461c-0.356,0 -0.665,-0.162 -0.926,-0.487c-0.261,-0.324 -0.391,-0.709 -0.391,-1.154l0,-0.072l0,-0.018l0,-11.302l-120.086,0c-0.177,-0.014 -0.355,-0.014 -0.531,-0.043c-0.528,-0.087 -1.041,-0.303 -1.503,-0.635c-0.308,-0.222 -0.591,-0.492 -0.842,-0.805c-0.887,-1.104 -1.321,-2.694 -1.157,-4.243c0.046,-0.438 0.139,-0.868 0.275,-1.277c0.204,-0.613 0.505,-1.174 0.882,-1.643c0.503,-0.626 1.137,-1.082 1.824,-1.311c0.458,-0.153 0.582,-0.134 1.052,-0.172l120.086,0Z"/></g><defs><radialGradient id="_Radial1" cx="0" cy="0" r="1" gradientUnits="userSpaceOnUse" gradientTransform="matrix(10.9581,0,0,12.4168,1265.47,143.145)"><stop offset="0%" style="stop-color:#130c0e;stop-opacity:1"/><stop offset="100%" style="stop-color:#130c0e;stop-opacity:1"/></radialGradient><radialGradient id="_Radial2" cx="0" cy="0" r="1" gradientUnits="userSpaceOnUse" gradientTransform="matrix(16.2329,0,0,16.2329,1295.36,137.954)"><stop offset="0%" style="stop-color:#130c0e;stop-opacity:1"/><stop offset="100%" style="stop-color:#130c0e;stop-opacity:1"/></radialGradient><radialGradient id="_Radial3" cx="0" cy="0" r="1" gradientUnits="userSpaceOnUse" gradientTransform="matrix(7.37367,0,0,7.37367,1277.67,148.725)"><stop offset="0%" style="stop-color:#130c0e;stop-opacity:1"/><stop offset="100%" style="stop-color:#130c0e;stop-opacity:1"/></radialGradient></defs></svg>