<?xml version="1.0" encoding="UTF-8" standalone="no"?><!DOCTYPE svg PUBLIC "-//W3C//DTD SVG 1.1//EN" "http://www.w3.org/Graphics/SVG/1.1/DTD/svg11.dtd"><svg width="100%" height="100%" viewBox="0 0 1189 162" version="1.1" xmlns="http://www.w3.org/2000/svg" xmlns:xlink="http://www.w3.org/1999/xlink" xml:space="preserve" style="fill-rule:evenodd;clip-rule:evenodd;stroke-linecap:round;stroke-linejoin:round;stroke-miterlimit:1.5;"><g><g><circle cx="683.686" cy="71.381" r="40.686" style="fill:#fff;fill-opacity:0;stroke:#000;stroke-width:1.46px;"/><path id="list" d="M700.793,94.203l-33.999,0c-0.754,0 -1.986,-1.457 -1.986,-2.274l0,-41.45c0,-0.816 1.232,-1.92 1.986,-1.92l33.999,0c0.754,0 1.771,1.179 1.771,1.995l0,41.451c0,0.816 -1.017,2.198 -1.771,2.198Zm-25.244,-10.208l24.357,0l0,-2.346l-24.357,0l0,2.346Zm-6.671,7.197l4.3,0l0,-2.362l-4.3,0l0,2.362Zm-0.011,-7.142l4.356,0l0,-2.424l-4.356,0l0,2.424Zm-0.053,-7.279l4.369,-0.048l0,-2.401l-4.369,0.048l0,2.401Zm0.015,-9.607l0,2.385l4.242,0l0,-2.385l-4.242,0Zm4.242,-4.863l0,-2.384l-4.242,0l0,2.384l4.242,0Zm0.185,-9.703l-4.438,0l0,2.444l4.438,0l0,-2.444Zm2.237,24.186l24.29,0l0,-2.388l-24.29,0l0,2.388Zm24.353,-7.266l0,-2.423l-24.319,0l0,2.423l24.319,0Zm-24.319,-7.248l24.319,0l0,-2.423l-24.319,0l0,2.423Zm24.407,-9.634l-24.38,0l0,2.411l24.38,0l0,-2.411Zm-24.355,36.259l-0.001,2.209l24.28,0l0.077,-2.209l-24.356,0Z" style="fill:#fff;fill-opacity:0;stroke:#000;stroke-width:1.03px;stroke-linecap:butt;stroke-miterlimit:1.41421;"/></g><g><circle cx="383.686" cy="71.381" r="40.686" style="fill:#fff;fill-opacity:0;stroke:#000;stroke-width:1.46px;"/><g><g><circle cx="383.686" cy="55.326" r="12.807" style="fill:none;stroke:#000;stroke-width:1.18px;stroke-miterlimit:10;"/><path d="M401.773,100.243l0,-17.449c0,-6.746 -5.387,-12.252 -11.968,-12.252l-12.239,0c-6.581,0 -11.968,5.518 -11.968,12.252l0,17.449l36.175,0Z" style="fill:none;stroke:#000;stroke-width:1.18px;stroke-miterlimit:10;"/></g></g></g><g><circle cx="83.686" cy="71.381" r="40.686" style="fill:#fff;fill-opacity:0;stroke:#000;stroke-width:1.46px;"/><g><path d="M73.276,51.698c-0.307,0 -2.317,5.414 -2.317,5.414l-2.454,0.994c0,0 -5.443,-2.311 -5.654,-2.105l-3.119,3.054c-0.217,0.212 2.269,5.432 2.269,5.432l-1.014,2.408c0,0 -5.517,2.124 -5.517,2.41l0,4.327c0,0.301 5.531,2.271 5.531,2.271l1.011,2.406c0,0 -2.361,5.323 -2.149,5.529l3.12,3.059c0.213,0.206 5.547,-2.228 5.547,-2.228l2.462,0.997c0,0 2.169,5.399 2.471,5.399l4.411,0c0.304,0 2.319,-5.415 2.319,-5.415l2.462,-0.995c0,0 5.43,2.311 5.641,2.11l3.123,-3.055c0.217,-0.215 -2.268,-5.431 -2.268,-5.431l1.015,-2.409c0,0 5.515,-2.13 5.515,-2.419l0,-4.322c0,-0.299 -5.529,-2.262 -5.529,-2.262l-1.014,-2.412c0,0 2.36,-5.329 2.152,-5.535l-3.125,-3.051c-0.217,-0.211 -5.545,2.222 -5.545,2.222l-2.465,-0.993c0,0 -2.166,-5.4 -2.465,-5.4l-4.414,0Zm-4.147,19.682c0,-3.477 2.895,-6.302 6.447,-6.302c3.551,0 6.445,2.825 6.445,6.302c0,3.478 -2.894,6.308 -6.445,6.308c-3.552,0 -6.447,-2.83 -6.447,-6.308Z" style="fill:#fff;fill-rule:nonzero;stroke:#000;stroke-width:3px;stroke-linecap:butt;stroke-miterlimit:1.41421;"/><path d="M103.808,73.766l-1.244,-0.081c0,0 -1.767,-2.142 -1.895,-2.098l-1.973,0.679c-0.133,0.048 -0.236,2.838 -0.236,2.838l-0.945,0.841c0,0 -2.772,-0.229 -2.838,-0.101l-0.941,1.884c-0.064,0.132 1.817,2.146 1.817,2.146l-0.1,1.262c0,0 -2.145,1.819 -2.106,1.952l0.637,1.988c0.043,0.14 2.803,0.188 2.803,0.188l0.809,0.947c0,0 -0.274,2.811 -0.149,2.873l1.845,0.923c0.125,0.064 2.145,-1.878 2.145,-1.878l1.244,0.088c0,0 1.769,2.142 1.905,2.095l1.968,-0.682c0.137,-0.046 0.234,-2.835 0.234,-2.835l0.949,-0.842c0,0 2.77,0.233 2.832,0.105l0.943,-1.884c0.065,-0.129 -1.811,-2.146 -1.811,-2.146l0.1,-1.259c0,0 2.147,-1.828 2.099,-1.958l-0.635,-1.99c-0.042,-0.136 -2.799,-0.186 -2.799,-0.186l-0.809,-0.95c0,0 0.273,-2.806 0.147,-2.87l-1.842,-0.922c-0.001,0 -0.003,0 -0.004,-0.001c-0.158,-0.035 -2.15,1.874 -2.15,1.874Zm-2.562,9.935c-1.484,-0.743 -2.069,-2.584 -1.311,-4.097c0.76,-1.516 2.584,-2.145 4.069,-1.403c1.482,0.742 2.068,2.581 1.308,4.099c-0.645,1.29 -2.068,1.939 -3.396,1.639c-0.227,-0.05 -0.452,-0.13 -0.67,-0.238Z" style="fill:#fff;fill-rule:nonzero;stroke:#000;stroke-width:3px;stroke-linecap:butt;stroke-miterlimit:1.41421;"/></g></g><g><circle cx="983.686" cy="71.381" r="40.686" style="fill:#fff;fill-opacity:0;stroke:#000;stroke-width:1.46px;"/><g><path d="M957.089,61.234c-0.947,0 -1.711,0.871 -1.711,1.942l0,22.775c0,1.07 0.764,1.939 1.711,1.939l16.757,0c0.945,0 1.712,-0.869 1.712,-1.939l0,-22.775c0,-1.071 -0.767,-1.942 -1.712,-1.942l-16.757,0Zm0.022,2.336l16.713,0l0,20.277l-16.713,0l0,-20.277Zm6.062,22.139l4.59,0l0,0.567l-4.59,0l0,-0.567Z" style="fill:url(#_Radial1);fill-rule:nonzero;"/><path d="M980.953,53.546c-1.226,0 -2.221,0.999 -2.221,2.233l0,20.477c0,1.234 0.995,2.233 2.221,2.233l11.056,0c0,0 0.482,4.47 -3.351,4.47l0,2.237l13.411,0l0,-2.237c-3.982,0 -3.354,-4.47 -3.354,-4.47l11.062,0c1.225,0 2.217,-0.999 2.217,-2.233l0,-20.477c0,-1.234 -0.992,-2.233 -2.217,-2.233l-28.824,0Zm0.157,2.375l28.509,0l0,17.267l-28.509,0l0,-17.267Zm12.485,19.836c0,-1.059 0.858,-1.918 1.917,-1.918c1.06,0 1.917,0.859 1.917,1.918c0,1.058 -0.857,1.917 -1.917,1.917c-1.059,0 -1.917,-0.859 -1.917,-1.917Z" style="fill:url(#_Radial2);fill-rule:nonzero;"/><g><rect x="973.303" y="71.552" width="8.863" height="16.743" style="fill:#fff;"/><path d="M973.854,71.068c-0.729,0 -1.319,0.593 -1.319,1.322l0,15.506c0,0.729 0.59,1.32 1.319,1.32l7.637,0c0.729,0 1.321,-0.591 1.321,-1.32l0,-15.506c0,-0.729 -0.592,-1.322 -1.321,-1.322l-7.637,0Zm6.428,1.165c0,-0.186 0.151,-0.338 0.339,-0.338c0.186,0 0.338,0.152 0.338,0.338c0,0.187 -0.152,0.339 -0.338,0.339c-0.188,0 -0.339,-0.152 -0.339,-0.339Zm-4.379,-0.209l3.541,0l0,0.386l-3.541,0l0,-0.386Zm-2.379,1.274l8.297,0l0,11.724l-8.297,0l0,-11.724Zm3.306,13.77c0,-0.466 0.377,-0.843 0.843,-0.843c0.464,0 0.842,0.377 0.842,0.843c0,0.465 -0.378,0.843 -0.842,0.843c-0.466,0 -0.843,-0.378 -0.843,-0.843Z" style="fill:url(#_Radial3);fill-rule:nonzero;"/></g><g><path d="M974.707,75.774l5.729,0" style="fill:none;stroke:#000;stroke-width:0.24px;"/><path d="M974.707,77.209l5.729,0" style="fill:none;stroke:#000;stroke-width:0.24px;"/><path d="M974.707,78.645l5.729,0" style="fill:none;stroke:#000;stroke-width:0.24px;"/><path d="M974.707,80.08l5.729,0" style="fill:none;stroke:#000;stroke-width:0.24px;"/><path d="M974.707,81.515l5.729,0" style="fill:none;stroke:#000;stroke-width:0.24px;"/><path d="M974.707,82.951l5.729,0" style="fill:none;stroke:#000;stroke-width:0.24px;"/></g><g><path d="M986.513,59.488l17.498,0" style="fill:none;stroke:#000;stroke-width:0.2px;"/><path d="M986.513,60.924l17.498,0" style="fill:none;stroke:#000;stroke-width:0.2px;"/><path d="M986.513,62.359l17.498,0" style="fill:none;stroke:#000;stroke-width:0.2px;"/><path d="M986.513,63.794l17.498,0" style="fill:none;stroke:#000;stroke-width:0.2px;"/><path d="M986.513,65.23l17.498,0" style="fill:none;stroke:#000;stroke-width:0.2px;"/><path d="M986.513,66.608l17.498,0" style="fill:none;stroke:#000;stroke-width:0.2px;"/><path d="M986.513,68.043l17.498,0" style="fill:none;stroke:#000;stroke-width:0.2px;"/><path d="M986.513,69.478l17.498,0" style="fill:none;stroke:#000;stroke-width:0.2px;"/></g><g><path d="M959.796,66.557l11.343,0" style="fill:none;stroke:#000;stroke-width:0.28px;"/><path d="M959.796,69.399l11.343,0" style="fill:none;stroke:#000;stroke-width:0.28px;"/><path d="M959.796,72.241l11.343,0" style="fill:none;stroke:#000;stroke-width:0.28px;"/><path d="M959.796,75.083l11.343,0" style="fill:none;stroke:#000;stroke-width:0.28px;"/><path d="M959.796,77.925l11.343,0" style="fill:none;stroke:#000;stroke-width:0.28px;"/><path d="M959.796,80.767l11.343,0" style="fill:none;stroke:#000;stroke-width:0.28px;"/></g></g></g><path d="M287.853,66.316l0,-11.301l0,-0.018l0,-0.073c0,-0.444 0.13,-0.829 0.391,-1.153c0.261,-0.325 0.57,-0.487 0.926,-0.487c0.386,0 0.702,0.153 0.947,0.461l13.183,16.411c0.248,0.308 0.371,0.701 0.371,1.179c0,0.016 0,0.031 0,0.046c0,0.015 0,0.031 0,0.046c0,0.479 -0.123,0.871 -0.371,1.179l-13.183,16.412c-0.245,0.307 -0.561,0.461 -0.947,0.461c-0.356,0 -0.665,-0.162 -0.926,-0.487c-0.261,-0.325 -0.391,-0.71 -0.391,-1.154l0,-0.072l0,-0.018l0,-11.302l-120.086,0c-0.177,-0.014 -0.355,-0.014 -0.531,-0.043c-0.528,-0.087 -1.041,-0.304 -1.503,-0.636c-0.308,-0.221 -0.591,-0.491 -0.842,-0.804c-0.887,-1.105 -1.321,-2.695 -1.157,-4.243c0.046,-0.439 0.139,-0.868 0.275,-1.277c0.204,-0.613 0.505,-1.174 0.882,-1.643c0.503,-0.626 1.137,-1.082 1.824,-1.311c0.458,-0.153 0.582,-0.134 1.052,-0.173l120.086,0Z"/><path d="M587.853,66.316l0,-11.301l0,-0.018l0,-0.073c0,-0.444 0.13,-0.829 0.391,-1.153c0.261,-0.325 0.57,-0.487 0.926,-0.487c0.386,0 0.702,0.153 0.947,0.461l13.183,16.411c0.248,0.308 0.371,0.701 0.371,1.179c0,0.016 0,0.031 0,0.046c0,0.015 0,0.031 0,0.046c0,0.479 -0.123,0.871 -0.371,1.179l-13.183,16.412c-0.245,0.307 -0.561,0.461 -0.947,0.461c-0.356,0 -0.665,-0.162 -0.926,-0.487c-0.261,-0.325 -0.391,-0.71 -0.391,-1.154l0,-0.072l0,-0.018l0,-11.302l-120.086,0c-0.177,-0.014 -0.355,-0.014 -0.531,-0.043c-0.528,-0.087 -1.041,-0.304 -1.503,-0.636c-0.308,-0.221 -0.591,-0.491 -0.842,-0.804c-0.887,-1.105 -1.321,-2.695 -1.157,-4.243c0.046,-0.439 0.139,-0.868 0.275,-1.277c0.204,-0.613 0.505,-1.174 0.882,-1.643c0.503,-0.626 1.137,-1.082 1.824,-1.311c0.458,-0.153 0.582,-0.134 1.052,-0.173l120.086,0Z"/><path d="M887.853,66.316l0,-11.301l0,-0.018l0,-0.073c0,-0.444 0.13,-0.829 0.391,-1.153c0.261,-0.325 0.57,-0.487 0.926,-0.487c0.386,0 0.702,0.153 0.947,0.461l13.183,16.411c0.248,0.308 0.371,0.701 0.371,1.179c0,0.016 0,0.031 0,0.046c0,0.015 0,0.031 0,0.046c0,0.479 -0.123,0.871 -0.371,1.179l-13.183,16.412c-0.245,0.307 -0.561,0.461 -0.947,0.461c-0.356,0 -0.665,-0.162 -0.926,-0.487c-0.261,-0.325 -0.391,-0.71 -0.391,-1.154l0,-0.072l0,-0.018l0,-11.302l-120.086,0c-0.177,-0.014 -0.355,-0.014 -0.531,-0.043c-0.528,-0.087 -1.041,-0.304 -1.503,-0.636c-0.308,-0.221 -0.591,-0.491 -0.842,-0.804c-0.887,-1.105 -1.321,-2.695 -1.157,-4.243c0.046,-0.439 0.139,-0.868 0.275,-1.277c0.204,-0.613 0.505,-1.174 0.882,-1.643c0.503,-0.626 1.137,-1.082 1.824,-1.311c0.458,-0.153 0.582,-0.134 1.052,-0.173l120.086,0Z"/></g><defs><radialGradient id="_Radial1" cx="0" cy="0" r="1" gradientUnits="userSpaceOnUse" gradientTransform="matrix(10.9581,0,0,12.4168,965.468,74.562)"><stop offset="0%" style="stop-color:#130c0e;stop-opacity:1"/><stop offset="100%" style="stop-color:#130c0e;stop-opacity:1"/></radialGradient><radialGradient id="_Radial2" cx="0" cy="0" r="1" gradientUnits="userSpaceOnUse" gradientTransform="matrix(16.2329,0,0,16.2329,995.363,69.3711)"><stop offset="0%" style="stop-color:#130c0e;stop-opacity:1"/><stop offset="100%" style="stop-color:#130c0e;stop-opacity:1"/></radialGradient><radialGradient id="_Radial3" cx="0" cy="0" r="1" gradientUnits="userSpaceOnUse" gradientTransform="matrix(7.37367,0,0,7.37367,977.673,80.142)"><stop offset="0%" style="stop-color:#130c0e;stop-opacity:1"/><stop offset="100%" style="stop-color:#130c0e;stop-opacity:1"/></radialGradient></defs></svg>