<?xml version="1.0" encoding="UTF-8" standalone="no"?><!DOCTYPE svg PUBLIC "-//W3C//DTD SVG 1.1//EN" "http://www.w3.org/Graphics/SVG/1.1/DTD/svg11.dtd"><svg width="100%" height="100%" viewBox="0 0 1345 299" version="1.1" xmlns="http://www.w3.org/2000/svg" xmlns:xlink="http://www.w3.org/1999/xlink" xml:space="preserve" style="fill-rule:evenodd;clip-rule:evenodd;stroke-linecap:round;stroke-linejoin:round;stroke-miterlimit:1.5;"><g><g><circle cx="983.686" cy="146.686" r="40.686" style="fill:#fff;fill-opacity:0;stroke:#000;stroke-width:1.46px;"/><path id="list" d="M1000.79,169.508l-33.999,0c-0.754,0 -1.986,-1.458 -1.986,-2.274l0,-41.451c0,-0.816 1.232,-1.92 1.986,-1.92l33.999,0c0.754,0 1.771,1.18 1.771,1.996l0,41.45c0,0.817 -1.017,2.199 -1.771,2.199Zm-25.244,-10.208l24.357,0l0,-2.347l-24.357,0l0,2.347Zm-6.671,7.196l4.3,0l0,-2.362l-4.3,0l0,2.362Zm-0.011,-7.142l4.356,0l0,-2.423l-4.356,0l0,2.423Zm-0.053,-7.278l4.369,-0.048l0,-2.401l-4.369,0.048l0,2.401Zm0.015,-9.607l0,2.384l4.242,0l0,-2.384l-4.242,0Zm4.242,-4.864l0,-2.384l-4.242,0l0,2.384l4.242,0Zm0.185,-9.703l-4.438,0l0,2.445l4.438,0l0,-2.445Zm2.237,24.187l24.29,0l0,-2.388l-24.29,0l0,2.388Zm24.353,-7.267l0,-2.422l-24.319,0l0,2.422l24.319,0Zm-24.319,-7.248l24.319,0l0,-2.422l-24.319,0l0,2.422Zm24.407,-9.634l-24.38,0l0,2.412l24.38,0l0,-2.412Zm-24.355,36.26l-0.001,2.208l24.28,0l0.077,-2.208l-24.356,0Z" style="fill:#fff;fill-opacity:0;stroke:#000;stroke-width:1.03px;stroke-linecap:butt;stroke-miterlimit:1.41421;"/></g><g><circle cx="383.686" cy="55.314" r="40.686" style="fill:#fff;fill-opacity:0;stroke:#000;stroke-width:1.46px;"/><g><g><circle cx="383.686" cy="39.259" r="12.807" style="fill:none;stroke:#000;stroke-width:1.18px;stroke-miterlimit:10;"/><path d="M401.773,84.176l0,-17.449c0,-6.746 -5.387,-12.252 -11.968,-12.252l-12.239,0c-6.581,0 -11.968,5.518 -11.968,12.252l0,17.449l36.175,0Z" style="fill:none;stroke:#000;stroke-width:1.18px;stroke-miterlimit:10;"/></g></g></g><g><circle cx="383.686" cy="146.686" r="40.686" style="fill:#fff;fill-opacity:0;stroke:#000;stroke-width:1.46px;"/><g><g><circle cx="383.686" cy="130.63" r="12.807" style="fill:none;stroke:#000;stroke-width:1.18px;stroke-miterlimit:10;"/><path d="M401.773,175.548l0,-17.45c0,-6.746 -5.387,-12.251 -11.968,-12.251l-12.239,0c-6.581,0 -11.968,5.517 -11.968,12.251l0,17.45l36.175,0Z" style="fill:none;stroke:#000;stroke-width:1.18px;stroke-miterlimit:10;"/></g></g></g><g><circle cx="383.686" cy="238.057" r="40.686" style="fill:#fff;fill-opacity:0;stroke:#000;stroke-width:1.46px;"/><g><g><circle cx="383.686" cy="222.002" r="12.807" style="fill:none;stroke:#000;stroke-width:1.18px;stroke-miterlimit:10;"/><path d="M401.773,266.919l0,-17.449c0,-6.746 -5.387,-12.252 -11.968,-12.252l-12.239,0c-6.581,0 -11.968,5.518 -11.968,12.252l0,17.449l36.175,0Z" style="fill:none;stroke:#000;stroke-width:1.18px;stroke-miterlimit:10;"/></g></g></g><g><circle cx="83.686" cy="146.686" r="40.686" style="fill:#fff;fill-opacity:0;stroke:#000;stroke-width:1.46px;"/><g><path d="M73.276,127.002c-0.307,0 -2.317,5.415 -2.317,5.415l-2.454,0.993c0,0 -5.443,-2.311 -5.654,-2.105l-3.119,3.055c-0.217,0.212 2.269,5.431 2.269,5.431l-1.014,2.409c0,0 -5.517,2.124 -5.517,2.41l0,4.326c0,0.302 5.531,2.272 5.531,2.272l1.011,2.405c0,0 -2.361,5.323 -2.149,5.529l3.12,3.059c0.213,0.206 5.547,-2.227 5.547,-2.227l2.462,0.997c0,0 2.169,5.398 2.471,5.398l4.411,0c0.304,0 2.319,-5.414 2.319,-5.414l2.462,-0.995c0,0 5.43,2.311 5.641,2.109l3.123,-3.054c0.217,-0.216 -2.268,-5.432 -2.268,-5.432l1.015,-2.408c0,0 5.515,-2.13 5.515,-2.42l0,-4.321c0,-0.299 -5.529,-2.263 -5.529,-2.263l-1.014,-2.411c0,0 2.36,-5.33 2.152,-5.535l-3.125,-3.052c-0.217,-0.211 -5.545,2.223 -5.545,2.223l-2.465,-0.994c0,0 -2.166,-5.4 -2.465,-5.4l-4.414,0Zm-4.147,19.683c0,-3.478 2.895,-6.303 6.447,-6.303c3.551,0 6.445,2.825 6.445,6.303c0,3.477 -2.894,6.307 -6.445,6.307c-3.552,0 -6.447,-2.83 -6.447,-6.307Z" style="fill:#fff;fill-rule:nonzero;stroke:#000;stroke-width:3px;stroke-linecap:butt;stroke-miterlimit:1.41421;"/><path d="M103.808,149.071l-1.244,-0.081c0,0 -1.767,-2.142 -1.895,-2.098l-1.973,0.679c-0.133,0.047 -0.236,2.838 -0.236,2.838l-0.945,0.841c0,0 -2.772,-0.23 -2.838,-0.101l-0.941,1.884c-0.064,0.132 1.817,2.146 1.817,2.146l-0.1,1.262c0,0 -2.145,1.819 -2.106,1.951l0.637,1.988c0.043,0.14 2.803,0.188 2.803,0.188l0.809,0.947c0,0 -0.274,2.812 -0.149,2.874l1.845,0.923c0.125,0.064 2.145,-1.878 2.145,-1.878l1.244,0.087c0,0 1.769,2.142 1.905,2.096l1.968,-0.683c0.137,-0.046 0.234,-2.835 0.234,-2.835l0.949,-0.841c0,0 2.77,0.232 2.832,0.105l0.943,-1.884c0.065,-0.129 -1.811,-2.147 -1.811,-2.147l0.1,-1.258c0,0 2.147,-1.828 2.099,-1.958l-0.635,-1.991c-0.042,-0.135 -2.799,-0.186 -2.799,-0.186l-0.809,-0.95c0,0 0.273,-2.805 0.147,-2.869l-1.842,-0.922c-0.001,-0.001 -0.003,-0.001 -0.004,-0.001c-0.158,-0.036 -2.15,1.874 -2.15,1.874Zm-2.562,9.934c-1.484,-0.743 -2.069,-2.583 -1.311,-4.097c0.76,-1.515 2.584,-2.144 4.069,-1.403c1.482,0.743 2.068,2.582 1.308,4.099c-0.645,1.291 -2.068,1.94 -3.396,1.64c-0.227,-0.05 -0.452,-0.13 -0.67,-0.239Z" style="fill:#fff;fill-rule:nonzero;stroke:#000;stroke-width:3px;stroke-linecap:butt;stroke-miterlimit:1.41421;"/></g></g><g><circle cx="1283.69" cy="146.686" r="40.686" style="fill:#fff;fill-opacity:0;stroke:#000;stroke-width:1.46px;"/><g><path d="M1257.09,136.539c-0.947,0 -1.711,0.87 -1.711,1.942l0,22.775c0,1.07 0.764,1.938 1.711,1.938l16.757,0c0.945,0 1.712,-0.868 1.712,-1.938l0,-22.775c0,-1.072 -0.767,-1.942 -1.712,-1.942l-16.757,0Zm0.022,2.336l16.713,0l0,20.277l-16.713,0l0,-20.277Zm6.062,22.138l4.59,0l0,0.567l-4.59,0l0,-0.567Z" style="fill:url(#_Radial1);fill-rule:nonzero;"/><path d="M1280.95,128.851c-1.226,0 -2.221,0.999 -2.221,2.233l0,20.477c0,1.234 0.995,2.233 2.221,2.233l11.056,0c0,0 0.482,4.47 -3.351,4.47l0,2.237l13.411,0l0,-2.237c-3.982,0 -3.354,-4.47 -3.354,-4.47l11.062,0c1.225,0 2.217,-0.999 2.217,-2.233l0,-20.477c0,-1.234 -0.992,-2.233 -2.217,-2.233l-28.824,0Zm0.157,2.374l28.509,0l0,17.268l-28.509,0l0,-17.268Zm12.485,19.836c0,-1.059 0.858,-1.918 1.917,-1.918c1.06,0 1.917,0.859 1.917,1.918c0,1.058 -0.857,1.917 -1.917,1.917c-1.059,0 -1.917,-0.859 -1.917,-1.917Z" style="fill:url(#_Radial2);fill-rule:nonzero;"/><g><rect x="1273.3" y="146.856" width="8.863" height="16.743" style="fill:#fff;"/><path d="M1273.85,146.373c-0.729,0 -1.319,0.592 -1.319,1.322l0,15.505c0,0.729 0.59,1.321 1.319,1.321l7.637,0c0.729,0 1.321,-0.592 1.321,-1.321l0,-15.505c0,-0.73 -0.592,-1.322 -1.321,-1.322l-7.637,0Zm6.428,1.165c0,-0.187 0.151,-0.338 0.339,-0.338c0.186,0 0.338,0.151 0.338,0.338c0,0.187 -0.152,0.338 -0.338,0.338c-0.188,0 -0.339,-0.151 -0.339,-0.338Zm-4.379,-0.209l3.541,0l0,0.385l-3.541,0l0,-0.385Zm-2.379,1.274l8.297,0l0,11.723l-8.297,0l0,-11.723Zm3.306,13.77c0,-0.466 0.377,-0.844 0.843,-0.844c0.464,0 0.842,0.378 0.842,0.844c0,0.465 -0.378,0.843 -0.842,0.843c-0.466,0 -0.843,-0.378 -0.843,-0.843Z" style="fill:url(#_Radial3);fill-rule:nonzero;"/></g><g><path d="M1274.71,151.079l5.729,0" style="fill:none;stroke:#000;stroke-width:0.24px;"/><path d="M1274.71,152.514l5.729,0" style="fill:none;stroke:#000;stroke-width:0.24px;"/><path d="M1274.71,153.949l5.729,0" style="fill:none;stroke:#000;stroke-width:0.24px;"/><path d="M1274.71,155.385l5.729,0" style="fill:none;stroke:#000;stroke-width:0.24px;"/><path d="M1274.71,156.82l5.729,0" style="fill:none;stroke:#000;stroke-width:0.24px;"/><path d="M1274.71,158.255l5.729,0" style="fill:none;stroke:#000;stroke-width:0.24px;"/></g><g><path d="M1286.51,134.793l17.498,0" style="fill:none;stroke:#000;stroke-width:0.2px;"/><path d="M1286.51,136.228l17.498,0" style="fill:none;stroke:#000;stroke-width:0.2px;"/><path d="M1286.51,137.663l17.498,0" style="fill:none;stroke:#000;stroke-width:0.2px;"/><path d="M1286.51,139.099l17.498,0" style="fill:none;stroke:#000;stroke-width:0.2px;"/><path d="M1286.51,140.534l17.498,0" style="fill:none;stroke:#000;stroke-width:0.2px;"/><path d="M1286.51,141.912l17.498,0" style="fill:none;stroke:#000;stroke-width:0.2px;"/><path d="M1286.51,143.347l17.498,0" style="fill:none;stroke:#000;stroke-width:0.2px;"/><path d="M1286.51,144.783l17.498,0" style="fill:none;stroke:#000;stroke-width:0.2px;"/></g><g><path d="M1259.8,141.862l11.343,0" style="fill:none;stroke:#000;stroke-width:0.28px;"/><path d="M1259.8,144.704l11.343,0" style="fill:none;stroke:#000;stroke-width:0.28px;"/><path d="M1259.8,147.546l11.343,0" style="fill:none;stroke:#000;stroke-width:0.28px;"/><path d="M1259.8,150.388l11.343,0" style="fill:none;stroke:#000;stroke-width:0.28px;"/><path d="M1259.8,153.23l11.343,0" style="fill:none;stroke:#000;stroke-width:0.28px;"/><path d="M1259.8,156.072l11.343,0" style="fill:none;stroke:#000;stroke-width:0.28px;"/></g></g></g><g><path d="M587.853,141.621l0,-11.302l0,-0.018l0,-0.072c0,-0.444 0.13,-0.829 0.391,-1.154c0.261,-0.325 0.57,-0.487 0.926,-0.487c0.386,0 0.702,0.153 0.947,0.461l13.183,16.411c0.248,0.308 0.371,0.701 0.371,1.18c0,0.015 0,0.031 0,0.046c0,0.015 0,0.03 0,0.045c0,0.479 -0.123,0.872 -0.371,1.18l-13.183,16.411c-0.245,0.308 -0.561,0.461 -0.947,0.461c-0.356,0 -0.665,-0.162 -0.926,-0.487c-0.261,-0.324 -0.391,-0.709 -0.391,-1.154l0,-0.072l0,-0.018l0,-11.301l-120.086,0c-0.177,-0.015 -0.355,-0.015 -0.531,-0.044c-0.528,-0.086 -1.041,-0.303 -1.503,-0.635c-0.308,-0.221 -0.591,-0.492 -0.842,-0.805c-0.887,-1.104 -1.321,-2.694 -1.157,-4.242c0.046,-0.439 0.139,-0.869 0.275,-1.278c0.204,-0.613 0.505,-1.174 0.882,-1.643c0.503,-0.626 1.137,-1.081 1.824,-1.311c0.458,-0.153 0.582,-0.134 1.052,-0.172l120.086,0Z"/><path d="M586.929,99.077l3.341,-10.797l0.006,-0.017l0.021,-0.069c0.131,-0.425 0.37,-0.754 0.715,-0.987c0.345,-0.233 0.688,-0.297 1.029,-0.191c0.368,0.114 0.624,0.354 0.768,0.72l7.742,19.575c0.146,0.368 0.148,0.779 0.006,1.237c-0.004,0.014 -0.009,0.029 -0.014,0.043c-0.004,0.015 -0.008,0.029 -0.013,0.044c-0.142,0.458 -0.375,0.796 -0.703,1.017l-17.445,11.781c-0.326,0.221 -0.673,0.274 -1.041,0.16c-0.341,-0.105 -0.588,-0.351 -0.741,-0.739c-0.153,-0.387 -0.164,-0.793 -0.033,-1.218l0.022,-0.069l0.005,-0.017l3.341,-10.796l-114.719,-35.5c-0.164,-0.066 -0.335,-0.119 -0.494,-0.198c-0.479,-0.239 -0.905,-0.598 -1.248,-1.051c-0.229,-0.303 -0.42,-0.645 -0.567,-1.018c-0.521,-1.317 -0.465,-2.964 0.149,-4.395c0.174,-0.406 0.389,-0.789 0.64,-1.139c0.376,-0.525 0.83,-0.972 1.328,-1.309c0.666,-0.449 1.406,-0.697 2.13,-0.713c0.483,-0.011 0.596,0.044 1.057,0.146l114.718,35.5Z"/><path d="M584.643,186.413l-2.956,-10.908l-0.005,-0.017l-0.018,-0.07c-0.117,-0.429 -0.092,-0.834 0.075,-1.216c0.167,-0.382 0.423,-0.619 0.767,-0.712c0.372,-0.101 0.717,-0.036 1.035,0.197l17.016,12.392c0.319,0.233 0.541,0.58 0.666,1.042c0.004,0.015 0.008,0.029 0.012,0.044c0.004,0.014 0.008,0.029 0.012,0.044c0.126,0.462 0.109,0.873 -0.049,1.236l-8.432,19.287c-0.157,0.362 -0.422,0.592 -0.794,0.693c-0.344,0.093 -0.684,0.018 -1.021,-0.228c-0.337,-0.245 -0.563,-0.582 -0.679,-1.011l-0.019,-0.07l-0.005,-0.017l-2.956,-10.908l-115.905,31.407c-0.175,0.032 -0.347,0.079 -0.524,0.097c-0.533,0.055 -1.085,-0.021 -1.617,-0.22c-0.355,-0.133 -0.699,-0.32 -1.024,-0.557c-1.145,-0.833 -1.979,-2.255 -2.226,-3.792c-0.07,-0.436 -0.093,-0.874 -0.069,-1.304c0.037,-0.645 0.181,-1.266 0.422,-1.817c0.321,-0.736 0.814,-1.341 1.417,-1.742c0.403,-0.268 0.527,-0.282 0.971,-0.442l115.906,-31.408Z"/></g><g><path d="M288.17,151.751l0,11.301l0,0.018l0,0.072c0,0.445 0.131,0.83 0.391,1.154c0.261,0.325 0.57,0.487 0.927,0.487c0.385,0 0.701,-0.153 0.947,-0.461l13.182,-16.411c0.248,-0.308 0.372,-0.701 0.372,-1.18c0,-0.015 -0.001,-0.03 -0.001,-0.045c0,-0.015 0.001,-0.031 0.001,-0.046c0,-0.479 -0.124,-0.872 -0.372,-1.18l-13.182,-16.411c-0.246,-0.308 -0.562,-0.461 -0.947,-0.461c-0.357,0 -0.666,0.162 -0.927,0.487c-0.26,0.325 -0.391,0.71 -0.391,1.154l0,0.072l0,0.018l0,11.302l-120.085,0c-0.177,0.014 -0.355,0.014 -0.531,0.043c-0.529,0.087 -1.042,0.304 -1.503,0.635c-0.308,0.222 -0.592,0.492 -0.843,0.805c-0.887,1.105 -1.321,2.695 -1.157,4.243c0.047,0.439 0.139,0.868 0.275,1.277c0.204,0.613 0.505,1.174 0.882,1.643c0.503,0.626 1.137,1.082 1.824,1.311c0.458,0.153 0.582,0.134 1.053,0.173l120.085,0Z"/><path d="M282.161,223.266l-2.925,10.917l-0.004,0.017l-0.019,0.07c-0.115,0.429 -0.089,0.835 0.079,1.215c0.168,0.382 0.424,0.618 0.769,0.711c0.372,0.099 0.717,0.033 1.034,-0.201l16.981,-12.44c0.319,-0.233 0.54,-0.58 0.664,-1.043c0.004,-0.015 0.008,-0.03 0.011,-0.044c0.004,-0.015 0.009,-0.029 0.012,-0.044c0.124,-0.463 0.107,-0.874 -0.053,-1.236l-8.486,-19.264c-0.158,-0.361 -0.423,-0.591 -0.795,-0.69c-0.345,-0.092 -0.685,-0.016 -1.021,0.231c-0.336,0.245 -0.561,0.584 -0.676,1.013l-0.019,0.07l-0.005,0.017l-2.925,10.917l-115.994,-31.081c-0.174,-0.032 -0.346,-0.078 -0.524,-0.095c-0.532,-0.054 -1.084,0.023 -1.616,0.224c-0.355,0.134 -0.698,0.322 -1.022,0.559c-1.143,0.838 -1.973,2.261 -2.216,3.799c-0.068,0.436 -0.09,0.875 -0.065,1.305c0.039,0.645 0.184,1.265 0.427,1.815c0.324,0.735 0.818,1.339 1.422,1.738c0.404,0.267 0.528,0.281 0.973,0.44l115.993,31.08Z"/><path d="M284.783,77.66l2.925,10.917l0.005,0.017l0.019,0.07c0.115,0.429 0.34,0.767 0.676,1.013c0.336,0.247 0.676,0.323 1.021,0.231c0.372,-0.1 0.637,-0.33 0.795,-0.691l8.486,-19.263c0.16,-0.362 0.177,-0.773 0.053,-1.236c-0.003,-0.015 -0.008,-0.029 -0.012,-0.044c-0.003,-0.015 -0.007,-0.029 -0.011,-0.044c-0.124,-0.463 -0.345,-0.81 -0.664,-1.044l-16.981,-12.439c-0.317,-0.234 -0.662,-0.301 -1.034,-0.201c-0.345,0.092 -0.601,0.329 -0.769,0.71c-0.168,0.381 -0.194,0.787 -0.079,1.216l0.019,0.07l0.004,0.017l2.925,10.917l-115.993,31.08c-0.168,0.06 -0.34,0.106 -0.502,0.18c-0.488,0.22 -0.928,0.562 -1.288,1.002c-0.24,0.294 -0.443,0.628 -0.605,0.996c-0.571,1.296 -0.578,2.944 -0.019,4.397c0.158,0.412 0.358,0.803 0.596,1.163c0.355,0.539 0.791,1.003 1.277,1.358c0.648,0.475 1.378,0.751 2.101,0.795c0.482,0.029 0.597,-0.021 1.061,-0.106l115.994,-31.081Z"/></g><path d="M887.853,141.621l0,-11.302l0,-0.018l0,-0.072c0,-0.444 0.13,-0.829 0.391,-1.154c0.261,-0.325 0.57,-0.487 0.926,-0.487c0.386,0 0.702,0.153 0.947,0.461l13.183,16.411c0.248,0.308 0.371,0.701 0.371,1.18c0,0.015 0,0.031 0,0.046c0,0.015 0,0.03 0,0.045c0,0.479 -0.123,0.872 -0.371,1.18l-13.183,16.411c-0.245,0.308 -0.561,0.461 -0.947,0.461c-0.356,0 -0.665,-0.162 -0.926,-0.487c-0.261,-0.324 -0.391,-0.709 -0.391,-1.154l0,-0.072l0,-0.018l0,-11.301l-120.086,0c-0.177,-0.015 -0.355,-0.015 -0.531,-0.044c-0.528,-0.086 -1.041,-0.303 -1.503,-0.635c-0.308,-0.221 -0.591,-0.492 -0.842,-0.805c-0.887,-1.104 -1.321,-2.694 -1.157,-4.242c0.046,-0.439 0.139,-0.869 0.275,-1.278c0.204,-0.613 0.505,-1.174 0.882,-1.643c0.503,-0.626 1.137,-1.081 1.824,-1.311c0.458,-0.153 0.582,-0.134 1.052,-0.172l120.086,0Z"/><path d="M1187.85,141.621l0,-11.302l0,-0.018l0,-0.072c0,-0.444 0.13,-0.829 0.391,-1.154c0.261,-0.325 0.57,-0.487 0.926,-0.487c0.386,0 0.702,0.153 0.947,0.461l13.183,16.411c0.248,0.308 0.371,0.701 0.371,1.18c0,0.015 0,0.031 0,0.046c0,0.015 0,0.03 0,0.045c0,0.479 -0.123,0.872 -0.371,1.18l-13.183,16.411c-0.245,0.308 -0.561,0.461 -0.947,0.461c-0.356,0 -0.665,-0.162 -0.926,-0.487c-0.261,-0.324 -0.391,-0.709 -0.391,-1.154l0,-0.072l0,-0.018l0,-11.301l-120.086,0c-0.177,-0.015 -0.355,-0.015 -0.531,-0.044c-0.528,-0.086 -1.041,-0.303 -1.503,-0.635c-0.308,-0.221 -0.591,-0.492 -0.842,-0.805c-0.887,-1.104 -1.321,-2.694 -1.157,-4.242c0.046,-0.439 0.139,-0.869 0.275,-1.278c0.204,-0.613 0.505,-1.174 0.882,-1.643c0.503,-0.626 1.137,-1.081 1.824,-1.311c0.458,-0.153 0.582,-0.134 1.052,-0.172l120.086,0Z"/><g><circle cx="674.768" cy="137.768" r="44.377" style="fill:#fff;fill-opacity:0;stroke:#000;stroke-width:1.6px;"/><path d="M687.761,140.853c-1.209,0.033 -2.417,0.105 -3.619,0.251c-0.987,0.119 -1.97,0.287 -2.933,0.537c-0.205,0.054 -0.41,0.112 -0.614,0.174c-1.019,0.31 -2.017,0.734 -2.887,1.357c-0.165,0.118 -0.324,0.243 -0.478,0.375c-0.428,0.367 -0.808,0.786 -1.144,1.237c-0.434,0.582 -0.798,1.212 -1.146,1.848c-0.07,0.129 -0.14,0.26 -0.209,0.39c-0.283,0.533 -0.56,1.069 -0.848,1.599c-0.27,0.496 -0.55,0.987 -0.849,1.465c-0.357,0.572 -0.742,1.126 -1.162,1.654c-0.444,0.559 -0.927,1.087 -1.447,1.577c-0.389,0.367 -0.798,0.711 -1.224,1.033c-0.299,0.226 -0.607,0.441 -0.922,0.644c-1.762,1.139 -3.735,1.915 -5.754,2.461c-0.325,0.088 -0.651,0.17 -0.979,0.247c-0.386,0.091 -0.773,0.174 -1.162,0.25c-0.549,0.108 -1.101,0.203 -1.654,0.287c-0.696,0.106 -1.394,0.194 -2.093,0.268c-0.987,0.104 -1.977,0.18 -2.969,0.234c-1.362,0.074 -2.727,0.105 -4.092,0.11c-0.267,0.001 -0.535,0 -0.803,-0.001c-0.203,-0.002 -0.407,-0.003 -0.611,-0.006l0.067,-6.04c2.164,0.024 4.331,-0.016 6.489,-0.187c0.913,-0.072 1.825,-0.167 2.733,-0.296c0.808,-0.114 1.612,-0.254 2.409,-0.43c0.579,-0.128 1.153,-0.276 1.72,-0.449c0.557,-0.169 1.107,-0.364 1.644,-0.592c0.973,-0.412 1.904,-0.937 2.713,-1.621c0.269,-0.228 0.524,-0.472 0.763,-0.731c0.243,-0.263 0.47,-0.54 0.681,-0.829c0.45,-0.611 0.832,-1.268 1.195,-1.933c0.071,-0.132 0.141,-0.263 0.212,-0.395c0.509,-0.961 1.002,-1.932 1.572,-2.86c0.289,-0.469 0.596,-0.927 0.928,-1.368c0.36,-0.477 0.748,-0.933 1.165,-1.361c0.452,-0.462 0.937,-0.89 1.452,-1.28c0.308,-0.234 0.627,-0.454 0.955,-0.661l0.069,-0.043l-0.069,-0.043c-0.328,-0.207 -0.647,-0.427 -0.955,-0.661c-0.515,-0.39 -1,-0.819 -1.452,-1.28c-0.417,-0.428 -0.805,-0.884 -1.165,-1.361c-0.332,-0.441 -0.639,-0.899 -0.928,-1.368c-0.57,-0.928 -1.063,-1.899 -1.572,-2.86c-0.071,-0.132 -0.141,-0.263 -0.212,-0.395c-0.363,-0.665 -0.745,-1.322 -1.195,-1.933c-0.211,-0.289 -0.438,-0.566 -0.681,-0.829c-0.239,-0.259 -0.494,-0.503 -0.763,-0.731c-0.809,-0.684 -1.74,-1.209 -2.713,-1.622c-0.537,-0.227 -1.087,-0.422 -1.644,-0.592c-0.567,-0.172 -1.141,-0.32 -1.72,-0.448c-0.797,-0.176 -1.601,-0.316 -2.409,-0.431c-0.908,-0.128 -1.82,-0.223 -2.733,-0.295c-2.158,-0.171 -4.325,-0.211 -6.489,-0.187l-0.067,-6.04c0.204,-0.003 0.408,-0.004 0.611,-0.006c0.268,-0.001 0.536,-0.002 0.803,-0.001c1.365,0.004 2.73,0.036 4.092,0.11c0.992,0.054 1.982,0.13 2.969,0.234c0.699,0.074 1.397,0.162 2.093,0.268c0.553,0.084 1.105,0.179 1.654,0.287c0.389,0.076 0.776,0.159 1.162,0.25c0.328,0.077 0.654,0.159 0.979,0.247c2.019,0.546 3.992,1.322 5.754,2.461c0.315,0.203 0.623,0.418 0.922,0.644c0.426,0.322 0.835,0.666 1.224,1.033c0.52,0.49 1.003,1.018 1.447,1.577c0.42,0.528 0.805,1.082 1.162,1.654c0.299,0.478 0.579,0.969 0.849,1.464c0.288,0.531 0.565,1.067 0.848,1.6c0.069,0.13 0.139,0.26 0.209,0.39c0.348,0.636 0.712,1.266 1.146,1.848c0.336,0.451 0.716,0.87 1.144,1.237c0.154,0.132 0.313,0.257 0.478,0.375c0.87,0.623 1.868,1.047 2.887,1.357c0.204,0.062 0.409,0.12 0.614,0.173c0.963,0.251 1.946,0.419 2.933,0.538c1.202,0.145 2.41,0.218 3.619,0.25c0.001,-0.163 0.002,-0.323 0.002,-0.479l0,-1.11l0,-6.806l0,-0.012l0,-0.05c0,-0.307 0.112,-0.573 0.337,-0.797c0.224,-0.225 0.49,-0.337 0.797,-0.337c0.331,0 0.603,0.106 0.814,0.319l11.343,11.342c0.214,0.213 0.32,0.484 0.32,0.815c0,0.011 0,0.022 0,0.032c0,0.01 0,0.021 0,0.032c0,0.331 -0.106,0.602 -0.32,0.815l-11.343,11.342c-0.211,0.213 -0.483,0.319 -0.814,0.319c-0.307,0 -0.573,-0.112 -0.797,-0.337c-0.225,-0.224 -0.337,-0.49 -0.337,-0.797l0,-0.05l0,-0.013l0,-6.805l0,-1.11l-0.002,-0.142Z" style="fill:#fff;stroke:#000;stroke-width:2.1px;stroke-linecap:butt;stroke-miterlimit:1.41421;"/></g></g><defs><radialGradient id="_Radial1" cx="0" cy="0" r="1" gradientUnits="userSpaceOnUse" gradientTransform="matrix(10.9581,0,0,12.4168,1265.47,149.867)"><stop offset="0%" style="stop-color:#130c0e;stop-opacity:1"/><stop offset="100%" style="stop-color:#130c0e;stop-opacity:1"/></radialGradient><radialGradient id="_Radial2" cx="0" cy="0" r="1" gradientUnits="userSpaceOnUse" gradientTransform="matrix(16.2329,0,0,16.2329,1295.36,144.676)"><stop offset="0%" style="stop-color:#130c0e;stop-opacity:1"/><stop offset="100%" style="stop-color:#130c0e;stop-opacity:1"/></radialGradient><radialGradient id="_Radial3" cx="0" cy="0" r="1" gradientUnits="userSpaceOnUse" gradientTransform="matrix(7.37367,0,0,7.37367,1277.67,155.447)"><stop offset="0%" style="stop-color:#130c0e;stop-opacity:1"/><stop offset="100%" style="stop-color:#130c0e;stop-opacity:1"/></radialGradient></defs></svg>